<svg width="478" height="34" fill="none" xmlns="http://www.w3.org/2000/svg"><path d="M207.646 14.709c-1.383.518-2.742 1.176-3.938 2.047-.152.11-.013.345.156.265 1.292-.621 2.672-1.062 4.057-1.39 4.931-1.136 10.083-.517 14.85 1.03.333.109.939.31 1.236.42 6.951 2.661 16.467 3.684 22.568-1.292.145-.118-.009-.342-.173-.253a16.538 16.538 0 01-3.98 1.544c-5.794 1.39-12.181.183-17.692-1.846a42.486 42.486 0 00-1.366-.454c-5.063-1.562-10.684-1.914-15.718-.071zm71.441-10.572c1.291-.62 2.671-1.062 4.057-1.39 4.932-1.136 10.083-.516 14.85 1.03.333.109.939.311 1.236.42 6.95 2.662 16.467 3.685 22.567-1.292.145-.118-.008-.342-.172-.253a16.508 16.508 0 01-3.98 1.545c-5.795 1.389-12.182.183-17.692-1.847a41.448 41.448 0 00-1.367-.455c-5.063-1.56-10.684-1.913-15.718-.07-1.383.518-2.741 1.176-3.937 2.047-.152.111-.014.346.156.265zM257.884 14.79c-1.383.518-2.743 1.176-3.938 2.047-.152.11-.013.346.156.265 1.292-.621 2.672-1.062 4.057-1.39 4.931-1.136 10.083-.517 14.851 1.03.332.109.938.31 1.235.42 6.951 2.661 16.467 3.684 22.567-1.292.145-.118-.008-.342-.172-.253a16.53 16.53 0 01-3.981 1.544c-5.794 1.39-12.181.184-17.691-1.847a42.714 42.714 0 00-1.367-.454c-5.062-1.56-10.684-1.913-15.717-.07zm50.238 0c-1.383.518-2.742 1.176-3.938 2.047-.152.11-.013.346.157.265 1.291-.621 2.671-1.062 4.056-1.39 4.932-1.136 10.084-.517 14.851 1.03.332.109.938.31 1.235.42 6.951 2.661 16.468 3.684 22.568-1.292.145-.118-.008-.342-.173-.253a16.522 16.522 0 01-3.98 1.544c-5.794 1.39-12.181.184-17.691-1.847a43.562 43.562 0 00-1.367-.454c-5.063-1.56-10.684-1.913-15.718-.07zM228.735 4.137c1.292-.62 2.672-1.062 4.057-1.39 4.932-1.136 10.083-.516 14.851 1.03.332.109.939.311 1.235.42 6.951 2.662 16.467 3.685 22.567-1.292.145-.118-.008-.342-.172-.253a16.492 16.492 0 01-3.98 1.545c-5.795 1.389-12.181.183-17.692-1.847a41.396 41.396 0 00-1.366-.455c-5.063-1.56-10.684-1.913-15.718-.07-1.383.518-2.743 1.176-3.938 2.047-.152.111-.013.346.156.265zm-150.4.249c1.292-.62 2.671-1.062 4.057-1.39 4.932-1.136 10.083-.516 14.85 1.03.333.109.94.311 1.236.42 6.951 2.662 16.467 3.685 22.567-1.292.145-.118-.008-.342-.173-.253a16.475 16.475 0 01-3.979 1.545c-5.795 1.389-12.182.183-17.692-1.847a41.05 41.05 0 00-1.367-.455C92.771.584 87.15.231 82.116 2.074c-1.383.518-2.742 1.176-3.937 2.047-.152.111-.014.346.156.265zm100.047-.33c1.291-.62 2.671-1.062 4.057-1.39 4.931-1.136 10.083-.516 14.85 1.03.333.109.939.311 1.236.42 6.95 2.662 16.467 3.685 22.567-1.292.145-.118-.009-.343-.173-.253a16.507 16.507 0 01-3.979 1.545c-5.795 1.388-12.182.183-17.692-1.847a41.448 41.448 0 00-1.367-.455c-5.063-1.56-10.684-1.913-15.718-.07-1.383.518-2.742 1.176-3.938 2.047-.152.111-.013.346.157.264zm-150.399.33c1.292-.62 2.672-1.062 4.057-1.39 4.932-1.136 10.083-.516 14.85 1.03.333.109.94.311 1.236.42 6.95 2.662 16.467 3.685 22.567-1.292.146-.118-.008-.342-.172-.253a16.509 16.509 0 01-3.98 1.545c-5.795 1.389-12.181.183-17.692-1.847a40.669 40.669 0 00-1.366-.455C42.42.584 36.799.231 31.765 2.074c-1.384.518-2.742 1.176-3.938 2.047-.152.111-.013.346.156.265zm29.149 10.652c-1.383.518-2.742 1.176-3.938 2.047-.152.11-.013.346.156.265 1.292-.621 2.672-1.062 4.057-1.39 4.932-1.136 10.083-.517 14.85 1.03.333.109.94.31 1.236.42 6.951 2.661 16.467 3.684 22.568-1.292.145-.118-.009-.342-.173-.253a16.522 16.522 0 01-3.98 1.544c-5.794 1.39-12.18.183-17.692-1.846a42.707 42.707 0 00-1.366-.455c-5.063-1.56-10.684-1.913-15.718-.07zm-52.367 0c-1.384.518-2.743 1.176-3.938 2.047-.152.11-.013.346.156.265 1.292-.621 2.672-1.062 4.057-1.39 4.932-1.136 10.083-.517 14.85 1.03.333.109.94.31 1.236.42 6.95 2.661 16.467 3.684 22.567-1.292.146-.118-.008-.342-.172-.253a16.523 16.523 0 01-3.98 1.544c-5.795 1.39-12.181.183-17.692-1.846a42.707 42.707 0 00-1.367-.455c-5.062-1.56-10.684-1.913-15.717-.07zm152.844 0c-1.383.518-2.743 1.176-3.939 2.047-.151.11-.012.346.157.265 1.292-.621 2.672-1.062 4.057-1.39 4.931-1.136 10.083-.517 14.851 1.03.331.109.938.31 1.234.42 6.952 2.661 16.468 3.684 22.568-1.292.146-.118-.008-.342-.173-.253a16.531 16.531 0 01-3.979 1.544c-5.795 1.39-12.182.183-17.692-1.846a42.22 42.22 0 00-1.367-.455c-5.062-1.56-10.684-1.913-15.717-.07zm-50.239 0c-1.383.518-2.742 1.176-3.938 2.047-.152.11-.013.346.157.265 1.291-.621 2.671-1.062 4.056-1.39 4.932-1.136 10.084-.517 14.851 1.03.332.109.938.31 1.236.42 6.95 2.661 16.467 3.684 22.567-1.292.145-.118-.008-.342-.173-.253a16.522 16.522 0 01-3.98 1.544c-5.794 1.39-12.181.183-17.691-1.846a43.047 43.047 0 00-1.367-.455c-5.063-1.56-10.684-1.913-15.718-.07zm21.316-10.652c1.292-.62 2.672-1.062 4.058-1.39 4.931-1.136 10.082-.516 14.85 1.03.332.109.939.311 1.235.42 6.951 2.662 16.467 3.685 22.568-1.292.145-.118-.009-.342-.173-.253a16.498 16.498 0 01-3.98 1.545c-5.794 1.389-12.181.183-17.692-1.847a40.627 40.627 0 00-1.366-.455c-5.063-1.56-10.684-1.913-15.718-.07-1.383.518-2.742 1.176-3.938 2.047-.152.111-.013.346.156.265zM70.521 29.78a16.506 16.506 0 01-3.98 1.544c-5.794 1.388-12.181.183-17.691-1.847a41.251 41.251 0 00-1.367-.454c-5.063-1.561-10.684-1.914-15.718-.072-1.383.519-2.742 1.177-3.938 2.048-.152.11-.013.346.156.264 1.292-.62 2.672-1.06 4.057-1.388 4.932-1.137 10.084-.517 14.85 1.029.333.108.94.31 1.236.42 6.95 2.662 16.468 3.684 22.568-1.291.145-.12-.008-.344-.173-.254zm50.352 0a16.523 16.523 0 01-3.98 1.544c-5.794 1.388-12.182.183-17.692-1.847a41.251 41.251 0 00-1.367-.454c-5.062-1.561-10.684-1.914-15.717-.072-1.384.519-2.743 1.177-3.939 2.048-.151.11-.013.346.157.264 1.292-.62 2.672-1.06 4.057-1.388 4.931-1.137 10.083-.517 14.85 1.029.332.108.939.31 1.236.42 6.951 2.662 16.467 3.684 22.567-1.291.146-.12-.008-.344-.172-.254zm50.353 0a16.507 16.507 0 01-3.98 1.544c-5.794 1.388-12.181.183-17.692-1.847a41.517 41.517 0 00-1.366-.454c-5.063-1.561-10.684-1.914-15.718-.072-1.383.519-2.743 1.177-3.938 2.048-.152.11-.013.346.156.264 1.292-.62 2.672-1.06 4.057-1.388 4.932-1.137 10.083-.517 14.851 1.029.332.108.938.31 1.234.42 6.952 2.662 16.468 3.684 22.568-1.291.145-.12-.008-.344-.172-.254zm150.571.004c.145-.118-.008-.343-.173-.254a16.467 16.467 0 01-3.98 1.544c-5.794 1.39-12.18.183-17.691-1.846a42.795 42.795 0 00-1.367-.454c-5.063-1.561-10.684-1.914-15.718-.07-1.383.518-2.742 1.175-3.937 2.046-.152.11-.014.346.156.265 1.291-.62 2.671-1.062 4.056-1.389 4.933-1.137 10.084-.518 14.851 1.029.333.109.939.311 1.235.42 6.951 2.662 16.468 3.684 22.568-1.291zm-100.877-.335a16.515 16.515 0 01-3.98 1.544c-5.794 1.39-12.182.184-17.692-1.846a40.35 40.35 0 00-1.367-.454c-5.062-1.561-10.684-1.914-15.717-.071-1.384.518-2.743 1.176-3.939 2.047-.151.111-.013.346.157.264 1.292-.62 2.671-1.06 4.057-1.388 4.931-1.137 10.083-.518 14.85 1.029.332.108.939.311 1.236.42 6.95 2.662 16.467 3.684 22.567-1.291.145-.12-.008-.344-.173-.254h.001zm50.353.081a16.519 16.519 0 01-3.98 1.545c-5.795 1.389-12.182.183-17.691-1.846a40.401 40.401 0 00-1.368-.455c-5.062-1.56-10.684-1.913-15.717-.071-1.383.518-2.742 1.176-3.938 2.048-.152.11-.013.345.156.264 1.292-.62 2.672-1.061 4.057-1.389 4.932-1.137 10.084-.517 14.851 1.03.332.108.938.31 1.235.419 6.95 2.662 16.467 3.685 22.568-1.29.144-.119-.009-.344-.173-.255zM384.464 4.386c1.291-.62 2.671-1.062 4.057-1.39 4.932-1.136 10.083-.516 14.85 1.03.333.109.939.311 1.236.42 6.95 2.662 16.467 3.685 22.567-1.292.145-.118-.008-.342-.173-.253a16.491 16.491 0 01-3.979 1.545c-5.795 1.389-12.182.183-17.692-1.847a41.448 41.448 0 00-1.367-.455c-5.063-1.56-10.684-1.913-15.718-.07-1.383.518-2.742 1.176-3.938 2.047-.152.111-.013.346.157.265zm-50.352 0c1.292-.62 2.672-1.062 4.057-1.39 4.932-1.136 10.083-.516 14.851 1.03.332.109.938.311 1.235.42 6.951 2.662 16.467 3.685 22.567-1.292.146-.118-.008-.342-.172-.253a16.498 16.498 0 01-3.98 1.545c-5.795 1.389-12.181.183-17.692-1.847a39.938 39.938 0 00-1.367-.455c-5.062-1.56-10.684-1.913-15.717-.07-1.384.518-2.742 1.176-3.938 2.047-.152.111-.013.346.156.265zm29.149 10.652c-1.383.518-2.742 1.176-3.938 2.047-.152.11-.013.346.156.265 1.292-.621 2.672-1.062 4.057-1.39 4.932-1.136 10.083-.517 14.851 1.03.332.109.939.31 1.235.42 6.951 2.661 16.467 3.684 22.568-1.292.145-.118-.009-.342-.173-.253a16.538 16.538 0 01-3.98 1.544c-5.794 1.39-12.181.183-17.692-1.846a42.22 42.22 0 00-1.367-.455c-5.062-1.56-10.684-1.913-15.717-.07zm50.238 0c-1.383.518-2.742 1.176-3.938 2.047-.152.11-.013.346.157.265 1.291-.621 2.671-1.062 4.056-1.39 4.932-1.136 10.084-.517 14.851 1.03.332.109.938.31 1.236.42 6.95 2.661 16.467 3.684 22.567-1.292.145-.118-.008-.342-.173-.253a16.522 16.522 0 01-3.98 1.544c-5.794 1.39-12.182.183-17.691-1.846a43.047 43.047 0 00-1.367-.455c-5.063-1.56-10.684-1.913-15.718-.07zm21.318-10.652c1.292-.62 2.672-1.062 4.058-1.39 4.931-1.136 10.082-.516 14.85 1.03.332.109.939.311 1.235.42 6.951 2.662 16.467 3.685 22.567-1.292.146-.118-.008-.342-.172-.253a16.498 16.498 0 01-3.98 1.545c-5.794 1.389-12.181.183-17.692-1.847a40.627 40.627 0 00-1.366-.455c-5.063-1.56-10.684-1.913-15.718-.07-1.383.518-2.742 1.176-3.938 2.047-.152.111-.013.346.156.265zM376.65 29.78a16.507 16.507 0 01-3.98 1.544c-5.794 1.388-12.181.183-17.691-1.847a41.57 41.57 0 00-1.367-.454c-5.063-1.561-10.684-1.914-15.718-.072-1.383.519-2.742 1.177-3.938 2.048-.152.11-.014.346.156.264 1.292-.62 2.672-1.06 4.057-1.388 4.932-1.137 10.083-.517 14.85 1.029.333.108.939.31 1.236.42 6.95 2.662 16.467 3.684 22.568-1.291.145-.12-.008-.344-.173-.254zm50.352 0a16.523 16.523 0 01-3.98 1.544c-5.795 1.388-12.182.183-17.692-1.847a40.797 40.797 0 00-1.367-.454c-5.062-1.561-10.684-1.914-15.717-.072-1.384.519-2.743 1.177-3.939 2.048-.151.11-.013.346.157.264 1.292-.62 2.672-1.06 4.057-1.388 4.931-1.137 10.083-.517 14.85 1.029.332.108.939.31 1.236.42 6.951 2.662 16.467 3.684 22.567-1.291.146-.12-.008-.344-.173-.254h.001zm50.353 0a16.507 16.507 0 01-3.98 1.544c-5.794 1.388-12.181.183-17.692-1.847a40.797 40.797 0 00-1.367-.454c-5.062-1.561-10.683-1.914-15.717-.072-1.384.519-2.743 1.177-3.938 2.048-.152.11-.013.346.156.264 1.292-.62 2.672-1.06 4.057-1.388 4.932-1.137 10.083-.517 14.85 1.029.333.108.939.31 1.235.42 6.952 2.662 16.468 3.684 22.568-1.291.145-.12-.008-.344-.173-.254h.001z" fill="#1A96D5"/></svg>