<svg width="30" height="30" fill="none" xmlns="http://www.w3.org/2000/svg"><path fill-rule="evenodd" clip-rule="evenodd" d="M25.67 25.67C27.5 23.838 27.5 20.892 27.5 15s0-8.839-1.83-10.67C23.838 2.5 20.892 2.5 15 2.5s-8.839 0-10.67 1.83C2.5 6.162 2.5 9.108 2.5 15s0 8.839 1.83 10.67C6.162 27.5 9.108 27.5 15 27.5s8.839 0 10.67-1.83zm-7.135-15.143c.518 0 .938.42.938.938v5.303a.938.938 0 01-1.875 0v-3.04l-5.47 5.47a.937.937 0 11-1.326-1.325l5.47-5.471h-3.04a.938.938 0 010-1.875h5.303z" fill="#FFF1EA"/></svg>