<svg width="90" height="111" fill="none" xmlns="http://www.w3.org/2000/svg"><g clip-path="url(#clip0_92_5344)" fill="#fff"><path d="M18.888 85.596c-.085.725-.352 1.284-.802 1.678-.451.394-1.05.59-1.797.59-.81 0-1.459-.29-1.947-.87-.488-.58-.732-1.357-.732-2.33v-.66c0-.636.114-1.196.342-1.68.227-.483.55-.853.967-1.113.418-.259.901-.388 1.45-.388.728 0 1.312.203 1.752.61.439.406.695.968.767 1.687h-.909c-.078-.547-.248-.944-.51-1.19-.263-.245-.629-.368-1.1-.368-.578 0-1.03.213-1.358.64-.328.428-.492 1.035-.492 1.824v.664c0 .744.155 1.337.466 1.776.31.44.745.66 1.304.66.502 0 .887-.114 1.156-.342.268-.227.446-.623.535-1.188h.908zm3.588-.702l1.577-3.977h1.05l-2.425 5.71c-.163.364-.315.622-.456.774a1.426 1.426 0 01-.497.348c-.19.08-.428.12-.713.12-.248 0-.407-.014-.476-.042l.028-.715.429.018c.33 0 .574-.158.734-.475l.118-.245.179-.419-2.335-5.074h1.012l1.775 3.978zm4.351 2.138h3.343v-5.376h-2.321l-.099 2.017c-.041.788-.146 1.46-.313 2.016-.168.556-.372 1.003-.61 1.343zm5.136 2.42h-.899V87.77h-4.92v1.684h-.904l-.004-2.423h.56c.295-.333.53-.78.704-1.34.174-.56.283-1.174.327-1.842l.15-2.932h4.101v6.114h.895l-.01 2.42zm5.344-5.329c0-.813-.163-1.437-.49-1.871-.326-.434-.782-.652-1.37-.652-.57 0-1.02.218-1.349.652-.327.434-.496 1.038-.506 1.81v.503c0 .788.166 1.407.497 1.857.332.45.788.676 1.368.676.584 0 1.036-.213 1.356-.638.32-.425.485-1.035.494-1.829v-.508zm.9.442c0 .672-.113 1.258-.34 1.758-.225.5-.545.883-.96 1.147-.414.263-.897.395-1.45.395a2.62 2.62 0 01-1.436-.398 2.63 2.63 0 01-.972-1.134c-.23-.491-.35-1.06-.355-1.707v-.494c0-.659.114-1.24.343-1.746.23-.505.553-.892.972-1.16a2.607 2.607 0 011.439-.403c.549 0 1.033.133 1.452.398.42.265.742.65.968 1.153.226.504.339 1.09.339 1.758v.433zm3.489-1.021l1.643-2.626h1.064l-2.166 3.398 2.218 3.454h-1.073l-1.686-2.673L40 87.77h-1.07l2.224-3.454-2.171-3.398h1.06l1.652 2.626zm8.065.579c0-.813-.163-1.437-.49-1.871-.326-.434-.783-.652-1.37-.652-.57 0-1.02.218-1.349.652-.327.434-.496 1.038-.506 1.81v.503c0 .788.166 1.407.497 1.857.331.45.788.676 1.368.676.584 0 1.036-.213 1.356-.638.32-.425.485-1.035.494-1.829v-.508zm.9.442c0 .672-.114 1.258-.34 1.758-.225.5-.546.883-.96 1.147-.414.263-.898.395-1.45.395a2.62 2.62 0 01-1.436-.398 2.63 2.63 0 01-.973-1.134c-.23-.491-.349-1.06-.355-1.707v-.494c0-.659.115-1.24.344-1.746.23-.505.553-.892.972-1.16a2.608 2.608 0 011.439-.403c.549 0 1.033.133 1.452.398.419.265.742.65.968 1.153.226.504.339 1.09.339 1.758v.433zm2.231 2.467h3.343v-5.376h-2.32l-.1 2.017c-.04.788-.145 1.46-.313 2.016-.167.556-.37 1.003-.61 1.343zm5.137 2.42h-.899V87.77h-4.92v1.684h-.904l-.005-2.423h.56c.295-.333.53-.78.704-1.34.175-.56.284-1.174.327-1.842l.151-2.932h4.101v6.114h.895l-.01 2.42zm6.352-1.682h-.909v-3.167h-3.456v3.168h-.904v-6.854h.904v2.947h3.456v-2.947h.909v6.853zm2.877-2.532h2.33l-1.167-3.205-1.163 3.205zm2.599.739h-2.872l-.645 1.793h-.933l2.618-6.853h.791l2.623 6.853h-.928l-.654-1.793zm3.296-2.996c0 .415.13.748.388 1 .259.251.62.379 1.081.382h1.328v-2.707h-1.286c-.49 0-.864.117-1.123.35-.259.232-.388.557-.388.975zm2.796 4.79V85.1h-1.582l-1.417 2.67h-.965l1.591-2.919c-.885-.348-1.327-.971-1.327-1.869 0-.652.214-1.16.642-1.522.429-.363 1.024-.544 1.787-.544h2.18v6.853h-.909zM12.123 99.338h-.91v-6.114h-3.38v6.114H6.93v-6.853h5.194v6.853zm2.829-2.532h2.33L16.116 93.6l-1.163 3.206zm2.6.739h-2.873l-.645 1.793h-.932l2.617-6.853h.792l2.622 6.853h-.928l-.654-1.793zm7.495-.381c-.085.724-.352 1.284-.803 1.678-.45.393-1.049.59-1.796.59-.81 0-1.459-.29-1.947-.87-.488-.581-.732-1.357-.732-2.33v-.66c0-.636.113-1.197.341-1.68.228-.483.55-.854.968-1.113.417-.259.9-.388 1.45-.388.728 0 1.312.203 1.751.61.44.406.695.968.768 1.687h-.909c-.078-.548-.249-.944-.51-1.19-.263-.245-.63-.368-1.1-.368-.578 0-1.03.213-1.359.64-.328.428-.491 1.035-.491 1.824v.664c0 .744.155 1.337.466 1.776.31.44.745.66 1.304.66.502 0 .887-.114 1.156-.342.268-.227.446-.623.534-1.188h.91zm6.276 0c-.085.724-.352 1.284-.802 1.678-.451.393-1.05.59-1.797.59-.81 0-1.459-.29-1.947-.87-.488-.581-.732-1.357-.732-2.33v-.66c0-.636.114-1.197.342-1.68a2.55 2.55 0 01.967-1.113c.418-.259.901-.388 1.45-.388.728 0 1.312.203 1.752.61.439.406.695.968.767 1.687h-.909c-.078-.548-.248-.944-.51-1.19-.263-.245-.629-.368-1.1-.368-.577 0-1.03.213-1.358.64-.328.428-.492 1.035-.492 1.824v.664c0 .744.155 1.337.466 1.776.31.44.745.66 1.304.66.502 0 .888-.114 1.156-.342.269-.227.446-.623.535-1.188h.908zm2.42-.358h2.331L34.907 93.6l-1.163 3.206zm2.6.739H33.47l-.645 1.793h-.932l2.618-6.853h.79l2.623 6.853h-.927l-.654-1.793zm7.321-1.332h-.735v3.125h-.903v-3.125h-.778l-1.94 3.125H38.18l2.307-3.615-2.128-3.238h1.068l1.822 2.975h.778v-2.975h.903v2.975h.745l1.822-2.975h1.064l-2.129 3.233 2.307 3.62h-1.125l-1.949-3.125zm8.258-3.728h.904v6.853h-.904v-5.281l-3.375 5.281h-.91v-6.853h.91v5.28l3.375-5.28zm3.456 3.431h1.625c.483 0 .853-.114 1.111-.342.258-.228.386-.557.386-.987 0-.41-.129-.736-.386-.982-.258-.244-.61-.372-1.06-.381h-1.676v2.692zm0 .739v2.683h-.903v-6.854h2.528c.75 0 1.338.192 1.763.575.425.383.638.89.638 1.52 0 .666-.208 1.178-.624 1.537-.416.36-1.011.539-1.787.539H55.38zm10.222.509c-.084.724-.352 1.284-.802 1.678-.451.393-1.05.59-1.797.59-.81 0-1.459-.29-1.947-.87-.488-.581-.732-1.357-.732-2.33v-.66c0-.636.114-1.197.342-1.68.227-.483.55-.854.967-1.113.417-.259.9-.388 1.45-.388.728 0 1.312.203 1.752.61.439.406.695.968.767 1.687h-.908c-.08-.548-.25-.944-.512-1.19-.262-.245-.628-.368-1.1-.368-.576 0-1.03.213-1.357.64-.328.428-.492 1.035-.492 1.824v.664c0 .744.155 1.337.466 1.776.31.44.745.66 1.304.66.502 0 .887-.114 1.156-.342.268-.227.446-.623.535-1.188h.908zm3.014-.904h-.834v3.078h-.904v-6.853h.904v3.022h.706l2.397-3.022h1.125l-2.617 3.323 2.81 3.53h-1.106l-2.481-3.078zm5.603.546h2.33L75.38 93.6l-1.163 3.206zm2.599.739h-2.872l-.645 1.793h-.933l2.618-6.853h.791l2.623 6.853h-.928l-.654-1.793zm3.296-2.996c0 .415.13.748.388 1 .26.25.62.379 1.081.381h1.328v-2.706h-1.286c-.49 0-.864.116-1.123.35-.258.232-.388.557-.388.975zm2.797 4.79v-2.67h-1.583l-1.417 2.67h-.965l1.591-2.919c-.885-.348-1.327-.97-1.327-1.869 0-.652.214-1.16.642-1.522.43-.363 1.024-.544 1.787-.544h2.18v6.853h-.908zm-62.034 8.488h-.833v3.079h-.904v-6.854h.904v3.022h.706l2.397-3.022h1.125l-2.618 3.323 2.811 3.531h-1.106l-2.482-3.079zm8.645-.569c0-.813-.163-1.437-.49-1.871-.326-.435-.783-.652-1.37-.652-.57 0-1.02.217-1.349.652-.328.434-.496 1.038-.506 1.81v.503c0 .788.166 1.407.497 1.857.331.45.787.676 1.367.676.584 0 1.036-.213 1.357-.638.32-.425.485-1.035.494-1.829v-.508zm.9.442c0 .672-.114 1.258-.34 1.758-.225.501-.546.883-.96 1.146-.415.264-.898.396-1.45.396a2.62 2.62 0 01-1.436-.398 2.63 2.63 0 01-.973-1.134c-.23-.491-.349-1.06-.355-1.707v-.494c0-.659.114-1.241.344-1.746.229-.505.553-.892.972-1.16a2.604 2.604 0 011.438-.403c.55 0 1.034.133 1.453.398.419.266.742.65.967 1.153.226.504.34 1.09.34 1.758v.433zm2.523-3.648l2.24 5.592 2.242-5.592h1.173v6.854h-.905v-2.669l.085-2.881-2.25 5.55h-.692l-2.246-5.536.09 2.867v2.669h-.905v-6.854h1.168zm12.487 6.854h-.909v-6.114h-3.38v6.114h-.905v-6.854h5.194v6.854zm2.83-2.533h2.33l-1.168-3.205-1.163 3.205zm2.599.739h-2.873l-.645 1.794h-.932l2.618-6.854h.79l2.623 6.854h-.927l-.654-1.794zm7.773 1.794h-.909v-3.168h-3.456v3.168h-.904v-6.854h.904v2.947h3.456v-2.947h.909v6.854zm5.928-6.854h.903v6.854h-.903v-5.282l-3.376 5.282h-.91v-6.854h.91v5.281l3.376-5.281zm3.343 2.064c0 .415.13.749.388 1 .26.251.62.379 1.081.382H70.7v-2.706h-1.286c-.49 0-.864.116-1.123.348-.258.233-.388.558-.388.976zm2.797 4.79v-2.669h-1.582l-1.418 2.669h-.965l1.591-2.919c-.884-.348-1.327-.971-1.327-1.868 0-.653.214-1.161.643-1.523.428-.362 1.023-.544 1.786-.544h2.18v6.854H70.7zM32.282 63.764c-.11-.048.363-1.15.645-2.559.285-1.422.048-2.66-.028-3.572a11.177 11.177 0 00-.68-2.79 14.556 14.556 0 00-.382-.876c-.306-.664-.962-2.17-2.12-3.562-1.165-1.4-2.577-2.532-4.183-3.456-1.348-.776-2.77-1.402-4.286-1.82-2.568-.71-5.148-1.383-7.716-2.094-1.691-.47-3.343-1.035-4.904-1.83-2.181-1.112-3.39-2.83-3.74-5.12-.189-1.236-.17-1.942-.007-3.178.007-.053.018-.105.03-.158.003-.013.017-.025.036-.054.046.057.091.106.129.16.678.975 1.659 1.397 2.699 1.971 2.625 1.45 5.52 1.866 5.527 1.867 6.946 1.588 5.898 1.36 6.56 1.505 4.552.99 6.112 1.312 8.064 2.424a14.466 14.466 0 012.604 1.905 16.3 16.3 0 014.136 5.884s.381.95.607 2.02c.301 1.425.376 3.516.059 5.61-.171 1.128-.825 3.188-1.144 3.987-.263.66-.52 1.297-.913 2.085-.093.187-.857 1.709-.993 1.65z"/><path d="M13.623 73.015c-2.373 0-4.25.004-6.767.004a.004.004 0 01-.004-.004V40.757c0-.004.004-.006.006-.003.209.182.5.427.866.697.664.488 1.262.83 1.8 1.11a28.234 28.234 0 004.095 1.695s-.01.739.005 1.006c.01.184-.002.418-.002.602.002 9.078.002 17.445.002 26.523l.003.624c0 .002-.002.004-.005.004zm63.447-2.419c-2.66.524-5.344.678-8.046.546-.608-.03-1.214-.08-1.822-.124-.09-.007-.181-.02-.276-.032a.139.139 0 01-.119-.14V57.993c0-.078.06-.141.136-.141.056 0 3.548.423 5.134.304 2.115-.159 2.98-.274 5.093-.786 0 0 .173.042.173.135v.116c0 4.156-.002 8.462.005 12.618 0 .226-.05.312-.277.357zm9.704-3.401c-1.906.845-2.546 1.073-2.639 1.044l-.169-.053a.14.14 0 01-.022-.076V39.547c-.044-.003-.06-.007-.076-.004-2.07.41-4.14.826-6.212 1.226-.22.042-.27.124-.269.339.007 2.871.005 6.347.005 9.219 0 .067.02.145-.006.199-.034.072-.1.175-.16.18-.89.078-1.78.17-2.671.204-1.869.071-2.065.062-3.924-.151-.709-.082-2.727-.375-3.81-.987-.059-.034-.118-.07-.118-.14v-9.771c0-.416 0-.416-.39-.34-1.657.326-3.314.651-4.97.979-.366.072-.73.15-1.1.225a.142.142 0 00-.11.139v.193c.004.935.012 1.869.014 2.803v.68c.052.07 4.572 6.341 1.245 15.343a21.08 21.08 0 01-.865 2.196 4.183 4.183 0 00-.383 1.732c-.004 1.534-.008 3.069-.026 4.603-.005.43-.002.653 0 .686 0 .003-.002.005-.005.004-.037-.007-.28-.054-.305-.06-1.3-.3-2.824-1.041-4.124-1.358a.075.075 0 00-.057.008c-1.787 1.038-5.09 2.59-9.347 2.549a17.826 17.826 0 01-4.686-.693c-3.985-1.138-6.72-3.396-8.24-4.91a.076.076 0 00-.12.016 18.944 18.944 0 01-5.207 5.858c-.068.05-.02.156.062.138a21.003 21.003 0 014.724-.477c.361.006.753.028 2.775.236 1.58.162 3.668.39 4.563.503 3.609.457 7.443 1.56 12.694 2.72 6.062 1.338 9.536 1.766 11.043 1.92l.444.044c1.603.146 4.986.35 8.454-.19 5.987-.93 10.421-3.797 11.102-4.246a27.406 27.406 0 006.093-5.506c.054-.065-.021-.157-.096-.117l-.844.447-2.267 1.21v-.001z"/><path d="M61.26 50.454c-.904-3.965-3.06-7.013-6.611-9.048-2.58-1.479-5.371-2.1-8.43-2.087a17.886 17.886 0 00-4.07.449c-1.098.252-2.032.59-2.883 1.028-1.845.951-3.006 2.143-3.722 2.902a16.25 16.25 0 00-1.472 1.801.091.091 0 000 .106c.381.551.7 1.31 1.122 2.263.22.497.866 2.035 1.108 4.18.05.438.355 1.98.025 4.264-.244 1.688-.836 4.347-2.45 7.407a.095.095 0 00.008.102c.31.408.627.81.986 1.168a15.926 15.926 0 002.424 1.954 12.007 12.007 0 003.713 1.445c.811.17 3.199.589 5.91-.202 4.533-1.322 6.756-5.084 7.25-5.97v-.001c.371-.765.779-1.713 1.027-2.897.44-2.096.237-3.936.004-5.136-.005-.027-.045-.023-.044.004a8.889 8.889 0 01-1.273 4.733c-.308.507-1.7 2.852-4.649 3.744-2.176.658-4.344.68-6.432-.317-2.575-1.228-4.14-3.285-4.717-6.064-.499-2.4-.186-4.709 1.057-6.837 1.266-2.167 3.198-3.402 5.666-3.784 1.8-.277 3.2.046 3.922.226.52.13 3.666.962 5.83 3.742.586.752.943 1.443 1.062 1.683.675 1.359.858 2.524.953 3.16.286 1.92.045 3.578-.237 4.726 0 .004-.337 1.924-1.583 3.824-2.681 4.087-6.88 5.626-8.91 6.18-.107.03-.086.185.024.187 1.809.023 3.592-.252 5.35-.745 7.47-2.096 10.24-8.592 10.476-13.333a17.778 17.778 0 00-.433-4.857zm-29.712 5.771c-.28-.922-.653-1.81-.995-2.708-.1-.265-.233-.514-.374-.82-.002-.004-.008-.003-.007.002a14.08 14.08 0 01-.18 2.566c-.116.715-.527 3.094-1.974 5.209a16.811 16.811 0 01-5.951 4.548 16.827 16.827 0 01-7.72 1.486c-.002 0-.004.001-.004.004l-.001 6.436c0 .003.002.005.004.005 2.378.037 4.327-.236 5.853-.583.145-.033.26-.06.306-.072 1.061-.256 3.041-.748 5.208-1.97.602-.338 2.186-1.244 3.511-2.651a10.3 10.3 0 001.458-1.932 9.6 9.6 0 00.52-1.03c.708-1.638.795-3.054.845-4.028.019-.361.146-2.334-.499-4.462zM6.16 66.85c0-.002-.003-.004-.006-.003a9.718 9.718 0 00-2.676 1.599 9.543 9.543 0 00-2.629 3.535 9.086 9.086 0 00-.603 2.156c0 .004.003.006.006.004.16-.087 2.898-1.555 5.907-1.15a.004.004 0 00.005-.003L6.16 66.85zM30.937 3.88v-.052c-.107-.046-.21-.102-.32-.137-.532-.166-1.082-.239-1.636-.273a9.105 9.105 0 00-2.045.085c-.631.104-1.22.332-1.803.588-1.276.56-2.457 1.272-3.479 2.23l-.11.11h.15c.699-.01 1.397-.036 2.096-.03 1.14.01 2.28.036 3.42.065.45.012.856-.093 1.194-.4.168-.151.325-.317.479-.484.42-.457.905-.838 1.398-1.21l.656-.493zM2.816 7.92c-.029-.144.057-.189.171-.208.495-.086.99-.172 1.486-.254.776-.13 1.552-.266 2.33-.382.474-.07.952-.11 1.428-.16.623-.064 1.247-.128 1.87-.187a117.88 117.88 0 011.774-.154c.734-.058 1.468-.117 2.203-.16 1.333-.076 2.667-.152 4.003-.108.37.012.74.044 1.11.061.184.009.369.02.55.004.085-.007.193-.05.242-.115a9.16 9.16 0 012.872-2.472 9.793 9.793 0 012.612-.973c.424-.096.847-.195 1.27-.293.023-.006.043-.017.102-.041-.319-.044-.6-.085-.88-.12-.433-.054-.866-.13-1.3-.148a42.704 42.704 0 00-2.422-.044c-.97.013-1.938.053-2.906.105a10.19 10.19 0 00-4.236 1.184c-1.132.595-2.193 1.302-3.228 2.05-.335.241-.682.47-1.102.537-.2.032-.402.048-.615.049.105-.078.21-.156.315-.232 1.358-.977 2.757-1.89 4.238-2.67a14.498 14.498 0 014.583-1.514c1.04-.16 2.09-.212 3.14-.2a43.37 43.37 0 013.06.12c2.067.173 4.086.61 6.065 1.229 1.076.337 2.14.712 3.156 1.206.649.316 1.295.638 1.863 1.09.203.163.402.339.568.538.132.16.227.358.31.55a.52.52 0 00.41.333 1685.851 1685.851 0 008.028 1.475c1.236.224 2.472.445 3.71.668l3.568.644 3.078.552c.422.077.844.156 1.264.262-.175-.012-.35-.023-.524-.038-.714-.063-1.428-.128-2.142-.19-.715-.061-1.43-.118-2.144-.18-.714-.062-1.428-.127-2.142-.19-.601-.051-1.202-.1-1.803-.152l-2.157-.188-1.788-.153-1.845-.16c-.591-.052-1.183-.102-1.774-.153-.51-.044-1.022-.09-1.533-.133-.401-.034-.804-.06-1.205-.095-.567-.05-1.134-.104-1.7-.156l-1.687-.158-2.014-.188-1.702-.155-2.028-.187c-.563-.052-1.124-.114-1.688-.153-2.386-.163-4.777-.159-7.166-.2a535.341 535.341 0 00-6.773-.075 83.824 83.824 0 00-3.65.056c-.848.034-1.694.134-2.54.21-.581.054-1.163.105-1.742.18-.479.063-.954.16-1.43.24-.485.082-.971.116-1.458.014-.018-.004-.035-.012-.055-.019zm81.373 4.886c.156-.188.311-.377.469-.564.324-.386.649-.77.974-1.154a.961.961 0 00.044-.056c.12-.167.087-.264-.116-.295-.3-.046-.602-.082-.903-.117a295.46 295.46 0 00-1.881-.212c-.67-.074-1.34-.15-2.01-.216-.477-.048-.956-.075-1.433-.125a.486.486 0 00-.42.154 91.82 91.82 0 01-1.224 1.194c-.151.144-.32.269-.479.405-.292.25-.634.343-1.007.301-.693-.078-1.384-.168-2.075-.256-.63-.08-1.26-.169-1.891-.247a258.303 258.303 0 00-4.016-.458 761.73 761.73 0 00-6.104-.617c-.109-.01-.218-.017-.326-.03-.028-.003-.054-.021-.074-.064l.9.04 2.05.104c.883.045 1.765.09 2.647.133l1.95.096c.888.043 1.775.088 2.662.132l1.352.067c.138.007.276.011.412.032.25.038.424-.059.569-.262.297-.417.676-.753 1.083-1.064.547-.419 1.154-.558 1.833-.496.7.065 1.403.087 2.103.14.744.055 1.486.121 2.228.188a146.586 146.586 0 013.881.397c.518.058 1.038.114 1.555.181.078.011.19.07.207.13.018.062-.042.174-.102.224-.903.763-1.812 1.52-2.72 2.279-.032.026-.07.046-.104.069a1.68 1.68 0 00-.034-.033z"/><path d="M18.995 1.036c.03-.02.06-.042.092-.059.516-.272 1.028-.551 1.55-.81.131-.064.293-.071.443-.084A19.839 19.839 0 0124.127.04c2.481.16 4.89.726 7.284 1.36 1.352.356 2.662.82 3.895 1.485.075.04.148.085.219.133.026.018.04.05.06.077l-.021.033c-.13-.035-.261-.068-.39-.106-1.34-.4-2.674-.812-4.018-1.194-1.022-.291-2.07-.472-3.122-.615A153.26 153.26 0 0024.928.82c-.797-.093-1.595-.176-2.4-.153-1.15.032-2.294.117-3.417.388-.035.009-.072.009-.108.013a.498.498 0 01-.008-.033zM.025 9.599c.107-.013.214-.033.321-.035 1.127-.018 2.254-.037 3.381-.048 1.146-.011 2.291-.028 3.437-.016 1.676.018 3.352.059 5.028.09 1.201.023 2.403.042 3.604.073 1.257.032 2.514.054 3.77.121 1.44.077 2.88.2 4.32.3 1.188.084 2.378.163 3.566.247 1.208.084 2.415.17 3.623.255.901.064 1.802.124 2.703.188l3.706.26c1.19.083 2.379.163 3.568.246 1.477.103 2.953.209 4.43.312 1.19.083 2.379.163 3.568.246l3.623.256c.928.065 1.858.126 2.787.192 1.458.102 2.918.184 4.374.314 1.882.168 3.763.354 5.64.572 2.218.258 4.432.56 6.647.842.026.004.052.015.116.034-.073.034-.115.07-.16.073-.333.027-.668.08-1 .066a331.64 331.64 0 01-4.688-.242c-1.264-.073-2.527-.169-3.79-.254l-2.175-.141c-.054-.004-.11 0-.21 0 .332 1.178.705 2.316 1.01 3.477-.144-.082-.173-.228-.217-.36-.286-.855-.568-1.712-.851-2.568-.202-.612-.222-.62-.86-.654-1.293-.07-2.585-.151-3.878-.226-.126-.007-.253 0-.423 0 .13 1.063.44 2.046.652 3.048l-.06.024c-.035-.065-.08-.128-.102-.198-.27-.81-.538-1.623-.806-2.435a4.352 4.352 0 01-.056-.187c-.067-.237-.221-.35-.468-.361-.437-.023-.873-.06-1.31-.088-.939-.063-1.877-.126-2.816-.186-.1-.007-.2 0-.329 0l.8 3.263-.07.023c-.037-.097-.082-.192-.11-.292-.244-.849-.484-1.699-.725-2.549-.015-.053-.033-.106-.046-.16-.056-.23-.2-.339-.438-.351-.465-.024-.93-.067-1.394-.093-1.2-.065-2.4-.125-3.6-.186l-.692-.038c.028.1.037.161.062.216.54 1.164 1.084 2.327 1.62 3.493.08.173.193.254.382.27.752.064 1.501.152 2.253.203 2.008.134 4.015.259 6.023.376 1.543.09 3.087.164 4.63.247 1.536.083 3.07.175 4.604.252.967.048 1.936.077 2.904.113.082.003.165-.006.29-.012-.288-1.056-.629-2.072-.91-3.107.288-.047.439.027.528.255.04.104.065.213.092.322.187.748.372 1.497.56 2.245.086.346.167.391.53.391.296 0 .593.034.89.052.232.014.464.028.696.04.327.02.568-.113.759-.38.525-.734 1.063-1.459 1.596-2.188l.148-.203a.673.673 0 01.628-.29c.687.043 1.375.081 2.063.122.828.049 1.655.092 2.482.149 1.199.08 2.397.17 3.595.258.76.057 1.523.112 2.283.182.574.054 1.146.13 1.72.197.018.002.036.01.054.01.49-.027.84.229 1.168.555.633.63 1.276 1.251 1.914 1.876.034.033.068.065.095.102.095.129.058.235-.094.266-.054.011-.111.006-.167.008-2.55.079-5.102.149-7.653.238-1.321.046-2.641.131-3.963.188-1.219.052-2.438.095-3.657.134-2.151.07-4.302.136-6.452.198-1.695.05-3.39.086-5.084.14a548.58 548.58 0 00-5.836.208c-2.289.098-4.575.25-6.866.305-1.861.045-3.721.164-5.582.25-1.34.061-2.68.117-4.02.182-1.664.081-3.328.169-4.993.254-1.265.065-2.53.135-3.795.194-.297.014-.6.027-.892-.015-.486-.07-.97-.167-1.446-.283-1.244-.302-2.375-.868-3.45-1.545-2.427-1.528-4.937-2.915-7.415-4.355-.692-.403-1.377-.816-2.062-1.231-.7-.424-1.382-.878-2.096-1.277a13.276 13.276 0 00-1.616-.755c-.505-.199-1.05-.232-1.592-.26-1.571-.083-3.142-.168-4.713-.255-.706-.04-1.412-.09-2.12-.125-.419-.021-.782-.136-1.052-.482C.326 10 .157 9.842 0 9.674l.025-.075zM90 24.906c-.06-.015-.19-.038-.346-.09-1.454-.493-2.575-.85-2.77-.915-1.825-.611-7.156-1.474-11.526-1.676a80.229 80.229 0 00-3.443-.065 57.35 57.35 0 00-3.195.098c-1.673.1-3.337.298-4.992.57-1.258.207-2.512.436-3.748.752-.411.105-1.777.407-3.76.957-2.89.801-5.104 1.546-5.696 1.745-12.399 4.176-13.211 4.741-16.725 5.357-5.137.902-9.438.755-10.03.724l-2.018-.105c-3.988-.356-6.892-1.049-7.512-1.213-.586-.155-1.522-.354-3.359-.92-1.248-.383-2.258-.794-2.956-1.017.037 0 .096-.085.165-.075 4.414.638 6.012.995 10.313 1.412 1.602.155 2.95.187 3.651.202 1.539.033 2.838.032 3.787-.05.975-.084 1.546-.215 1.548-.24.038-.35.053-1.225.037-1.568-.011-.25-.046-.534-.157-1.06-.177-.846-.266-1.269-.408-1.566-.11-.23-.482-1.05-1.643-1.501-.066-.026-.046-.123.024-.12.657.026 1.923.239 2.588.289.621.047 1.06.449 1.235 1.035.142.482.282.965.46 1.434.375.985 1.084 1.657 2.048 2.057.354.147.738.19 1.125.16.976-.079 1.943-.212 2.884-.493.472-.14.941-.292 1.412-.437 1.939-.598 12.107-3.614 15.248-4.543 2.222-.657 4.46-1.253 6.714-1.79a54.85 54.85 0 015.54-1.038 39.573 39.573 0 016.993-.289c1.146.053 2.294.093 3.438.188 1.178.097 2.353.236 3.524.393 1.168.157 2.866.41 5.049.94 2.31.558 3.6 1.057 4.038 1.231.63.25 1.146.485 1.515.66.316.19.65.35.948.567z"/><path d="M48.585 32.316c.1-.048.137-.071.177-.085 3.855-1.346 7.014-2.558 11.568-4.028a51.8 51.8 0 017.56-1.833c2.212-.361 4.44-.53 6.68-.389 1.708.108 3.415.263 5.118.441 1.232.13 2.443.395 3.647.685a.364.364 0 01.15.07c-.078 0-.156.006-.233-.001-1.922-.158-3.844-.307-5.775-.242-1.47.05-2.941.09-4.412.148-1.584.062-2.769.315-3.572.44-2.01.317-3.653.616-4.822.885-.413.095-.72.169-1.335.317-1.916.463-3.362.761-4.563 1.073-2.872.746-5.75 1.557-8.645 2.276a37.98 37.98 0 01-1.26.241c-.07.013-.143.002-.283.002zM21.648 24.06c.075.426.131.83.22 1.229.163.743.26 1.296.451 1.87a8.38 8.38 0 001.01 2.032l-3.2.026c.009-.162.012-.288.024-.414.092-1.024.07-1.54-.067-2.115a3.5 3.5 0 00-.494-1.162c-.32-.48-.69-.757-.868-.886-1.864-1.35-4.813-2.866-4.813-2.866a24.055 24.055 0 01-2.438-1.441c-.45-.304-.959-.663-1.59-1.156-1.013-.79-2.355-1.928-4.26-3.812a81.29 81.29 0 01-3.944-4.19c.075-.026.556-.026.615.028.43.396 3.443 3.187 4.3 4.012 1.93 1.858 3.172 2.811 4.458 3.697 1.735 1.194 2.602 1.79 3.624 2.324 1.213.633 4.208 2.136 5.226 2.458.714.227 1.33.322 1.746.366zm15.637 3.232l-3.661.14c-.014 0-.024-.01-.022-.023a2.73 2.73 0 00.04-.31c.015-.215.084-1.245-.63-1.931a1.995 1.995 0 00-.79-.46c-.023-.008-.018-.04.005-.04l3.278.083a.02.02 0 01.017.01A14.721 14.721 0 0037.3 27.26a.02.02 0 01-.015.033z"/></g><defs><clipPath id="clip0_92_5344"><path fill="#fff" d="M0 0h90v111H0z"/></clipPath></defs></svg>