<svg width="1262" height="34" fill="none" xmlns="http://www.w3.org/2000/svg"><path d="M206.883 14.21c-1.383.52-2.742 1.177-3.938 2.048-.152.11-.013.345.157.265 1.291-.621 2.671-1.062 4.056-1.39 4.932-1.136 10.084-.517 14.851 1.03.332.109.938.31 1.235.42 6.951 2.661 16.467 3.684 22.568-1.292.145-.118-.008-.343-.173-.253a16.502 16.502 0 01-3.98 1.544c-5.794 1.39-12.181.183-17.691-1.847a43.042 43.042 0 00-1.367-.454c-5.063-1.56-10.684-1.913-15.718-.07zm71.442-10.571c1.291-.62 2.671-1.062 4.058-1.39 4.931-1.136 10.082-.516 14.849 1.03a49 49 0 011.236.42c6.95 2.662 16.467 3.685 22.567-1.292.145-.118-.008-.343-.172-.253a16.492 16.492 0 01-3.98 1.545c-5.795 1.389-12.182.183-17.692-1.847a41.424 41.424 0 00-1.367-.455c-5.063-1.56-10.684-1.913-15.718-.07-1.383.518-2.741 1.176-3.937 2.047-.152.111-.014.346.156.265zm-21.204 10.653c-1.383.518-2.742 1.176-3.938 2.047-.152.11-.013.346.157.265 1.291-.621 2.671-1.062 4.056-1.39 4.932-1.136 10.084-.517 14.851 1.03.332.109.938.31 1.235.42 6.951 2.661 16.467 3.684 22.568-1.292.145-.118-.009-.343-.173-.253a16.538 16.538 0 01-3.98 1.544c-5.794 1.39-12.181.184-17.692-1.847a42.993 42.993 0 00-1.366-.454c-5.063-1.56-10.684-1.913-15.718-.07zm50.239 0c-1.384.518-2.743 1.176-3.938 2.047-.152.11-.013.346.156.265 1.291-.621 2.671-1.062 4.057-1.39 4.931-1.136 10.083-.517 14.851 1.03.331.109.938.31 1.234.42 6.952 2.661 16.468 3.684 22.568-1.292.145-.118-.008-.343-.173-.253a16.506 16.506 0 01-3.98 1.544c-5.794 1.39-12.181.184-17.691-1.847a43.047 43.047 0 00-1.367-.454c-5.063-1.56-10.684-1.913-15.718-.07h.001zM227.973 3.639c1.292-.62 2.672-1.062 4.057-1.39 4.932-1.136 10.083-.516 14.851 1.03.332.109.938.311 1.235.42 6.95 2.662 16.467 3.685 22.567-1.292.145-.118-.008-.343-.172-.253a16.492 16.492 0 01-3.98 1.545c-5.795 1.389-12.181.183-17.692-1.847a40.656 40.656 0 00-1.367-.455c-5.062-1.56-10.684-1.913-15.717-.07-1.384.518-2.743 1.176-3.938 2.047-.152.111-.013.346.156.265zm-150.399.249c1.291-.62 2.671-1.062 4.056-1.39 4.933-1.136 10.084-.516 14.851 1.03.333.109.939.311 1.236.42 6.95 2.662 16.467 3.685 22.567-1.292.145-.118-.009-.343-.173-.253a16.507 16.507 0 01-3.979 1.545c-5.795 1.389-12.182.183-17.693-1.847a40.944 40.944 0 00-1.366-.455C92.01.086 86.389-.267 81.355 1.576c-1.383.518-2.742 1.176-3.938 2.047-.152.111-.013.346.156.265zm100.047-.33c1.292-.62 2.672-1.062 4.057-1.39 4.932-1.136 10.083-.516 14.85 1.03.333.109.939.311 1.236.42 6.95 2.662 16.467 3.684 22.567-1.292.145-.118-.008-.343-.173-.253a16.491 16.491 0 01-3.979 1.545c-5.795 1.388-12.181.183-17.692-1.847a40.656 40.656 0 00-1.367-.455c-5.063-1.56-10.684-1.913-15.717-.07-1.384.518-2.743 1.176-3.938 2.047-.152.11-.013.346.156.264zm-150.399.33c1.291-.62 2.671-1.062 4.056-1.39 4.932-1.136 10.084-.516 14.85 1.03.333.109.94.311 1.236.42 6.951 2.662 16.467 3.685 22.568-1.292.145-.118-.009-.343-.172-.253a16.508 16.508 0 01-3.98 1.545C59.984 5.337 53.597 4.13 48.087 2.1a40.576 40.576 0 00-1.367-.455c-5.063-1.56-10.684-1.913-15.718-.07-1.383.518-2.742 1.176-3.938 2.047-.152.111-.013.346.156.265zM56.37 14.54c-1.383.518-2.743 1.176-3.938 2.047-.152.11-.013.346.156.265 1.292-.621 2.672-1.062 4.057-1.39 4.932-1.136 10.083-.517 14.85 1.03.333.109.94.31 1.236.42 6.95 2.661 16.467 3.684 22.567-1.292.146-.118-.008-.342-.172-.253a16.524 16.524 0 01-3.98 1.544c-5.795 1.39-12.181.183-17.692-1.847a42.54 42.54 0 00-1.367-.454c-5.062-1.56-10.684-1.912-15.717-.07zm-52.367 0c-1.383.518-2.742 1.176-3.938 2.047-.152.11-.013.346.156.265 1.292-.621 2.672-1.062 4.057-1.39 4.932-1.136 10.083-.517 14.851 1.03.332.109.939.31 1.235.42 6.951 2.661 16.467 3.684 22.568-1.292.145-.118-.009-.342-.173-.253a16.524 16.524 0 01-3.98 1.544c-5.794 1.39-12.18.183-17.692-1.847a42.54 42.54 0 00-1.366-.454c-5.063-1.56-10.684-1.912-15.718-.07zm152.844 0c-1.384.518-2.743 1.176-3.939 2.047-.151.11-.012.346.157.265 1.291-.621 2.671-1.062 4.057-1.39 4.931-1.136 10.083-.517 14.85 1.03.332.109.939.31 1.235.42 6.951 2.661 16.468 3.684 22.568-1.292.145-.118-.008-.342-.173-.253a16.522 16.522 0 01-3.98 1.544c-5.794 1.39-12.181.183-17.691-1.847a42.795 42.795 0 00-1.367-.454c-5.063-1.56-10.684-1.912-15.717-.07zm-50.239 0c-1.383.518-2.742 1.176-3.938 2.047-.152.11-.013.346.156.265 1.292-.621 2.672-1.062 4.057-1.39 4.931-1.136 10.083-.517 14.851 1.03.332.109.938.31 1.235.42 6.951 2.661 16.467 3.684 22.568-1.292.145-.118-.008-.342-.173-.253a16.538 16.538 0 01-3.98 1.544c-5.794 1.39-12.182.183-17.692-1.847a42.74 42.74 0 00-1.366-.454c-5.063-1.56-10.684-1.912-15.718-.07zm21.318-10.652c1.291-.62 2.671-1.062 4.057-1.39 4.931-1.136 10.083-.516 14.85 1.03a49 49 0 011.236.42c6.95 2.662 16.467 3.685 22.567-1.292.145-.118-.008-.343-.173-.253a16.507 16.507 0 01-3.979 1.545c-5.795 1.389-12.182.183-17.692-1.847a41.424 41.424 0 00-1.367-.455c-5.063-1.56-10.684-1.913-15.718-.07-1.383.518-2.742 1.176-3.938 2.047-.152.111-.013.346.157.265zM69.76 29.281a16.51 16.51 0 01-3.98 1.545c-5.795 1.388-12.182.183-17.692-1.847a41.096 41.096 0 00-1.367-.454c-5.063-1.561-10.684-1.914-15.717-.072-1.384.519-2.743 1.177-3.939 2.048-.151.11-.013.346.156.264 1.292-.62 2.672-1.06 4.058-1.389 4.93-1.136 10.083-.517 14.85 1.03.332.108.939.31 1.235.42 6.95 2.662 16.468 3.684 22.568-1.291.145-.12-.008-.344-.173-.254zm50.351 0a16.504 16.504 0 01-3.979 1.545c-5.795 1.388-12.182.183-17.692-1.847a41.096 41.096 0 00-1.367-.454c-5.062-1.561-10.684-1.914-15.717-.072-1.384.519-2.743 1.177-3.939 2.048-.151.11-.013.346.157.264 1.291-.62 2.671-1.06 4.057-1.389 4.93-1.136 10.083-.517 14.85 1.03.332.108.939.31 1.236.42 6.951 2.662 16.467 3.684 22.567-1.291.145-.12-.008-.344-.173-.254zm50.353 0a16.511 16.511 0 01-3.98 1.545c-5.795 1.388-12.181.183-17.692-1.847a40.57 40.57 0 00-1.367-.454c-5.062-1.561-10.684-1.914-15.717-.072-1.384.519-2.743 1.177-3.938 2.048-.152.11-.013.346.156.264 1.292-.62 2.671-1.06 4.057-1.389 4.932-1.136 10.083-.517 14.85 1.03.333.108.939.31 1.235.42 6.951 2.662 16.468 3.684 22.568-1.291.145-.12-.008-.344-.173-.254h.001zm150.571.004c.146-.117-.008-.342-.172-.253a16.503 16.503 0 01-3.98 1.544c-5.795 1.39-12.181.183-17.692-1.846a42.22 42.22 0 00-1.367-.454c-5.062-1.561-10.684-1.914-15.717-.07-1.384.518-2.743 1.175-3.938 2.046-.152.11-.013.346.156.265 1.291-.62 2.671-1.062 4.057-1.389 4.932-1.137 10.083-.518 14.851 1.029.332.109.938.311 1.234.42 6.952 2.662 16.468 3.684 22.568-1.291zm-100.876-.335a16.503 16.503 0 01-3.98 1.545c-5.794 1.39-12.182.183-17.692-1.846a41.054 41.054 0 00-1.366-.454c-5.063-1.561-10.684-1.914-15.718-.071-1.383.518-2.742 1.175-3.939 2.047-.151.11-.013.346.157.264 1.292-.62 2.672-1.06 4.057-1.388 4.931-1.137 10.083-.518 14.85 1.029.332.108.939.31 1.236.42 6.95 2.662 16.467 3.684 22.567-1.291.146-.12-.008-.344-.172-.254zm50.352.082a16.495 16.495 0 01-3.98 1.545c-5.795 1.389-12.181.183-17.691-1.847a39.672 39.672 0 00-1.368-.454c-5.062-1.56-10.684-1.913-15.716-.071-1.384.518-2.743 1.176-3.939 2.048-.151.11-.013.346.156.264 1.292-.62 2.672-1.061 4.058-1.389 4.931-1.137 10.083-.517 14.85 1.03.332.108.939.31 1.235.419 6.951 2.662 16.468 3.685 22.568-1.29.145-.119-.009-.344-.173-.255zM815.883 14.21c-1.383.52-2.742 1.177-3.938 2.048-.152.11-.013.345.157.265 1.291-.621 2.671-1.062 4.056-1.39 4.932-1.136 10.084-.517 14.851 1.03.332.109.938.31 1.235.42 6.951 2.661 16.467 3.684 22.568-1.292.145-.118-.008-.343-.173-.253a16.502 16.502 0 01-3.98 1.544c-5.794 1.39-12.181.183-17.691-1.847a43.042 43.042 0 00-1.367-.454c-5.063-1.56-10.684-1.913-15.718-.07zm71.442-10.571c1.291-.62 2.671-1.062 4.058-1.39 4.931-1.136 10.082-.516 14.849 1.03a49 49 0 011.236.42c6.95 2.662 16.467 3.685 22.567-1.292.145-.118-.008-.343-.172-.253a16.492 16.492 0 01-3.98 1.545c-5.795 1.389-12.182.183-17.692-1.847a41.424 41.424 0 00-1.367-.455c-5.063-1.56-10.684-1.913-15.718-.07-1.383.518-2.741 1.176-3.937 2.047-.152.111-.014.346.156.265zm-21.204 10.653c-1.383.518-2.742 1.176-3.938 2.047-.152.11-.013.346.157.265 1.291-.621 2.671-1.062 4.056-1.39 4.932-1.136 10.084-.517 14.851 1.03.332.109.938.31 1.235.42 6.951 2.661 16.467 3.684 22.568-1.292.145-.118-.009-.343-.173-.253a16.538 16.538 0 01-3.98 1.544c-5.794 1.39-12.181.184-17.692-1.847a42.993 42.993 0 00-1.366-.454c-5.063-1.56-10.684-1.913-15.718-.07zm50.239 0c-1.384.518-2.743 1.176-3.938 2.047-.152.11-.013.346.156.265 1.291-.621 2.671-1.062 4.057-1.39 4.931-1.136 10.083-.517 14.851 1.03.331.109.938.31 1.234.42 6.952 2.661 16.468 3.684 22.568-1.292.145-.118-.008-.343-.173-.253a16.506 16.506 0 01-3.98 1.544c-5.794 1.39-12.181.184-17.691-1.847a43.047 43.047 0 00-1.367-.454c-5.063-1.56-10.684-1.913-15.718-.07h.001zM836.973 3.639c1.292-.62 2.672-1.062 4.057-1.39 4.932-1.136 10.083-.516 14.851 1.03.332.109.938.311 1.235.42 6.95 2.662 16.467 3.685 22.567-1.292.145-.118-.008-.343-.172-.253a16.492 16.492 0 01-3.98 1.545c-5.795 1.389-12.181.183-17.692-1.847a40.656 40.656 0 00-1.367-.455c-5.062-1.56-10.684-1.913-15.717-.07-1.384.518-2.743 1.176-3.938 2.047-.152.111-.013.346.156.265zm-150.399.249c1.291-.62 2.671-1.062 4.057-1.39 4.931-1.136 10.083-.516 14.85 1.03.333.109.939.311 1.235.42 6.951 2.662 16.468 3.685 22.568-1.292.145-.118-.009-.343-.173-.253a16.507 16.507 0 01-3.979 1.545c-5.795 1.389-12.182.183-17.692-1.847a41.424 41.424 0 00-1.367-.455c-5.063-1.56-10.684-1.913-15.718-.07-1.383.518-2.742 1.176-3.938 2.047-.152.111-.013.346.157.265zm100.047-.33c1.292-.62 2.672-1.062 4.057-1.39 4.932-1.136 10.083-.516 14.85 1.03.333.109.939.311 1.236.42 6.95 2.662 16.467 3.684 22.567-1.292.145-.118-.008-.343-.173-.253a16.491 16.491 0 01-3.979 1.545c-5.795 1.388-12.181.183-17.692-1.847a40.656 40.656 0 00-1.367-.455c-5.063-1.56-10.684-1.913-15.717-.07-1.384.518-2.743 1.176-3.938 2.047-.152.11-.013.346.156.264zm-150.399.33c1.291-.62 2.671-1.062 4.056-1.39 4.932-1.136 10.084-.516 14.851 1.03.332.109.939.311 1.235.42 6.951 2.662 16.467 3.685 22.568-1.292.145-.118-.009-.343-.173-.253a16.507 16.507 0 01-3.979 1.545c-5.795 1.389-12.182.183-17.692-1.847a41.424 41.424 0 00-1.367-.455c-5.063-1.56-10.684-1.913-15.718-.07-1.383.518-2.742 1.176-3.938 2.047-.152.111-.013.346.156.265h.001zM665.37 14.54c-1.384.518-2.743 1.176-3.938 2.047-.152.11-.013.346.156.265 1.292-.621 2.672-1.062 4.057-1.39 4.932-1.136 10.083-.517 14.851 1.03.332.109.938.31 1.235.42 6.951 2.661 16.467 3.684 22.567-1.292.146-.118-.008-.342-.172-.253a16.538 16.538 0 01-3.98 1.544c-5.795 1.39-12.181.183-17.692-1.847a41.976 41.976 0 00-1.367-.454c-5.062-1.56-10.684-1.912-15.717-.07zm100.477 0c-1.384.518-2.743 1.176-3.939 2.047-.151.11-.012.346.157.265 1.291-.621 2.671-1.062 4.057-1.39 4.931-1.136 10.083-.517 14.85 1.03.332.109.939.31 1.235.42 6.951 2.661 16.468 3.684 22.568-1.292.145-.118-.008-.342-.173-.253a16.522 16.522 0 01-3.98 1.544c-5.794 1.39-12.181.183-17.691-1.847a42.795 42.795 0 00-1.367-.454c-5.063-1.56-10.684-1.912-15.717-.07zm-50.239 0c-1.383.518-2.742 1.176-3.938 2.047-.152.11-.013.346.156.265 1.292-.621 2.672-1.062 4.057-1.39 4.931-1.136 10.083-.517 14.851 1.03.332.109.938.31 1.235.42 6.951 2.661 16.467 3.684 22.568-1.292.145-.118-.008-.342-.173-.253a16.538 16.538 0 01-3.98 1.544c-5.794 1.39-12.182.183-17.692-1.847a42.74 42.74 0 00-1.366-.454c-5.063-1.56-10.684-1.912-15.718-.07zm21.318-10.652c1.291-.62 2.671-1.062 4.057-1.39 4.931-1.136 10.083-.516 14.85 1.03a49 49 0 011.236.42c6.95 2.662 16.467 3.685 22.567-1.292.145-.118-.008-.343-.173-.253a16.507 16.507 0 01-3.979 1.545c-5.795 1.389-12.182.183-17.692-1.847a41.424 41.424 0 00-1.367-.455c-5.063-1.56-10.684-1.913-15.718-.07-1.383.518-2.742 1.176-3.938 2.047-.152.111-.013.346.157.265zm-58.167 25.393a16.495 16.495 0 01-3.98 1.545c-5.794 1.388-12.181.183-17.691-1.847a40.57 40.57 0 00-1.367-.454c-5.063-1.561-10.684-1.914-15.717-.072-1.384.519-2.743 1.177-3.939 2.048-.151.11-.013.346.156.264 1.292-.62 2.672-1.06 4.058-1.389 4.931-1.136 10.083-.517 14.85 1.03.332.108.939.31 1.235.42 6.951 2.662 16.468 3.684 22.568-1.291.145-.12-.008-.344-.173-.254zm50.352 0a16.504 16.504 0 01-3.979 1.545c-5.795 1.388-12.182.183-17.692-1.847a40.57 40.57 0 00-1.367-.454c-5.062-1.561-10.684-1.914-15.717-.072-1.384.519-2.743 1.177-3.939 2.048-.151.11-.013.346.157.264 1.291-.62 2.671-1.06 4.057-1.389 4.931-1.136 10.083-.517 14.85 1.03.332.108.939.31 1.236.42 6.951 2.662 16.467 3.684 22.567-1.291.145-.12-.008-.344-.173-.254zm50.353 0a16.511 16.511 0 01-3.98 1.545c-5.795 1.388-12.181.183-17.692-1.847a40.57 40.57 0 00-1.367-.454c-5.062-1.561-10.684-1.914-15.717-.072-1.384.519-2.743 1.177-3.938 2.048-.152.11-.013.346.156.264 1.292-.62 2.671-1.06 4.057-1.389 4.932-1.136 10.083-.517 14.85 1.03.333.108.939.31 1.235.42 6.951 2.662 16.468 3.684 22.568-1.291.145-.12-.008-.344-.173-.254h.001zm150.571.004c.146-.117-.008-.342-.172-.253a16.503 16.503 0 01-3.98 1.544c-5.795 1.39-12.181.183-17.692-1.846a42.22 42.22 0 00-1.367-.454c-5.062-1.561-10.684-1.914-15.717-.07-1.384.518-2.743 1.175-3.938 2.046-.152.11-.013.346.156.265 1.291-.62 2.671-1.062 4.057-1.389 4.932-1.137 10.083-.518 14.851 1.029.332.109.938.311 1.234.42 6.952 2.662 16.468 3.684 22.568-1.291zm-100.876-.335a16.503 16.503 0 01-3.98 1.545c-5.794 1.39-12.182.183-17.692-1.846a41.054 41.054 0 00-1.366-.454c-5.063-1.561-10.684-1.914-15.718-.071-1.383.518-2.742 1.175-3.939 2.047-.151.11-.013.346.157.264 1.292-.62 2.672-1.06 4.057-1.388 4.931-1.137 10.083-.518 14.85 1.029.332.108.939.31 1.236.42 6.95 2.662 16.467 3.684 22.567-1.291.146-.12-.008-.344-.172-.254zm50.352.082a16.495 16.495 0 01-3.98 1.545c-5.795 1.389-12.181.183-17.691-1.847a39.672 39.672 0 00-1.368-.454c-5.062-1.56-10.684-1.913-15.716-.071-1.384.518-2.743 1.176-3.939 2.048-.151.11-.013.346.156.264 1.292-.62 2.672-1.061 4.058-1.389 4.931-1.137 10.083-.517 14.85 1.03.332.108.939.31 1.235.419 6.951 2.662 16.468 3.685 22.568-1.29.145-.119-.009-.344-.173-.255zM513.012 14.21c-1.383.52-2.742 1.177-3.938 2.048-.152.11-.013.345.157.265 1.291-.621 2.671-1.062 4.056-1.39 4.932-1.136 10.084-.517 14.85 1.03.333.109.939.31 1.236.42 6.951 2.661 16.467 3.684 22.568-1.292.145-.118-.008-.343-.173-.253a16.534 16.534 0 01-3.98 1.544c-5.794 1.39-12.181.183-17.691-1.847a43.042 43.042 0 00-1.367-.454c-5.063-1.56-10.684-1.913-15.718-.07zm71.442-10.571c1.291-.62 2.671-1.062 4.057-1.39 4.932-1.136 10.083-.516 14.85 1.03a49 49 0 011.236.42c6.95 2.662 16.467 3.685 22.567-1.292.145-.118-.008-.343-.172-.253a16.508 16.508 0 01-3.98 1.545c-5.795 1.389-12.182.183-17.692-1.847a41.424 41.424 0 00-1.367-.455c-5.063-1.56-10.684-1.913-15.718-.07-1.383.518-2.741 1.176-3.938 2.047-.152.111-.013.346.157.265zM563.25 14.292c-1.383.518-2.742 1.176-3.938 2.047-.152.11-.013.346.157.265 1.291-.621 2.671-1.062 4.056-1.39 4.932-1.136 10.084-.517 14.851 1.03.332.109.938.31 1.235.42 6.951 2.661 16.467 3.684 22.568-1.292.145-.118-.009-.343-.173-.253a16.538 16.538 0 01-3.98 1.544c-5.794 1.39-12.182.184-17.692-1.847a42.993 42.993 0 00-1.366-.454c-5.063-1.56-10.684-1.913-15.718-.07zm50.239 0c-1.384.518-2.743 1.176-3.938 2.047-.152.11-.013.346.156.265 1.291-.621 2.671-1.062 4.057-1.39 4.931-1.136 10.083-.517 14.85 1.03.332.109.939.31 1.235.42 6.951 2.661 16.468 3.684 22.568-1.292.145-.118-.008-.343-.173-.253a16.506 16.506 0 01-3.98 1.544c-5.794 1.39-12.181.184-17.691-1.847a43.047 43.047 0 00-1.367-.454c-5.063-1.56-10.684-1.913-15.718-.07h.001zM534.102 3.639c1.292-.62 2.671-1.062 4.057-1.39 4.932-1.136 10.083-.516 14.85 1.03a49 49 0 011.236.42c6.95 2.662 16.467 3.685 22.567-1.292.145-.118-.008-.343-.172-.253a16.508 16.508 0 01-3.98 1.545c-5.795 1.389-12.182.183-17.692-1.847a40.656 40.656 0 00-1.367-.455c-5.062-1.56-10.684-1.913-15.717-.07-1.384.518-2.743 1.176-3.938 2.047-.152.111-.013.346.156.265zm-150.399.249c1.291-.62 2.671-1.062 4.056-1.39 4.932-1.136 10.084-.516 14.851 1.03.333.109.939.311 1.235.42 6.951 2.662 16.468 3.685 22.568-1.292.145-.118-.009-.343-.173-.253a16.507 16.507 0 01-3.979 1.545c-5.795 1.389-12.182.183-17.693-1.847a40.604 40.604 0 00-1.366-.455c-5.063-1.56-10.684-1.913-15.718-.07-1.383.518-2.742 1.176-3.938 2.047-.152.111-.013.346.156.265h.001zm100.047-.33c1.291-.62 2.671-1.062 4.057-1.39 4.932-1.136 10.083-.516 14.85 1.03.333.109.939.311 1.236.42 6.95 2.662 16.467 3.684 22.567-1.292.145-.118-.008-.343-.173-.253a16.491 16.491 0 01-3.979 1.545c-5.795 1.388-12.181.183-17.692-1.847a41.424 41.424 0 00-1.367-.455c-5.063-1.56-10.684-1.913-15.718-.07-1.383.518-2.742 1.176-3.937 2.047-.152.11-.013.346.156.264zm-150.399.33c1.291-.62 2.671-1.062 4.056-1.39 4.932-1.136 10.084-.516 14.851 1.03.332.109.939.311 1.235.42 6.951 2.662 16.467 3.685 22.568-1.292.145-.118-.009-.343-.173-.253a16.499 16.499 0 01-3.98 1.545c-5.794 1.389-12.181.183-17.691-1.847a41.424 41.424 0 00-1.367-.455c-5.063-1.56-10.684-1.913-15.718-.07-1.383.518-2.742 1.176-3.938 2.047-.152.111-.013.346.156.265h.001zm29.148 10.652c-1.384.518-2.743 1.176-3.938 2.047-.152.11-.013.346.156.265 1.292-.621 2.672-1.062 4.057-1.39 4.932-1.136 10.083-.517 14.851 1.03.332.109.938.31 1.235.42 6.951 2.661 16.467 3.684 22.567-1.292.146-.118-.008-.342-.173-.253a16.515 16.515 0 01-3.979 1.544c-5.795 1.39-12.181.183-17.692-1.847a41.976 41.976 0 00-1.367-.454c-5.062-1.56-10.684-1.912-15.717-.07zm100.477 0c-1.384.518-2.743 1.176-3.939 2.047-.151.11-.012.346.157.265 1.291-.621 2.671-1.062 4.057-1.39 4.931-1.136 10.083-.517 14.85 1.03.332.109.938.31 1.235.42 6.951 2.661 16.468 3.684 22.568-1.292.145-.118-.008-.342-.173-.253a16.522 16.522 0 01-3.98 1.544c-5.794 1.39-12.181.183-17.691-1.847a42.795 42.795 0 00-1.367-.454c-5.063-1.56-10.684-1.912-15.718-.07h.001zm-50.239 0c-1.383.518-2.742 1.176-3.938 2.047-.152.11-.013.346.156.265 1.292-.621 2.672-1.062 4.057-1.39 4.931-1.136 10.083-.517 14.851 1.03.332.109.938.31 1.235.42 6.951 2.661 16.467 3.684 22.568-1.292.145-.118-.009-.342-.173-.253a16.538 16.538 0 01-3.98 1.544c-5.794 1.39-12.182.183-17.692-1.847a41.976 41.976 0 00-1.367-.454c-5.062-1.56-10.683-1.912-15.717-.07zm21.318-10.652c1.291-.62 2.671-1.062 4.057-1.39 4.931-1.136 10.082-.516 14.85 1.03.333.109.939.311 1.235.42 6.951 2.662 16.467 3.685 22.568-1.292.145-.118-.008-.343-.173-.253a16.507 16.507 0 01-3.979 1.545c-5.795 1.389-12.182.183-17.692-1.847a41.424 41.424 0 00-1.367-.455c-5.063-1.56-10.684-1.913-15.718-.07-1.383.518-2.742 1.176-3.938 2.047-.152.111-.013.346.157.265zm-58.167 25.393a16.495 16.495 0 01-3.98 1.545c-5.794 1.388-12.181.183-17.691-1.847a41.334 41.334 0 00-1.367-.454c-5.063-1.561-10.684-1.914-15.718-.072-1.383.519-2.742 1.177-3.938 2.048-.151.11-.013.346.156.264 1.292-.62 2.672-1.06 4.058-1.389 4.931-1.136 10.083-.517 14.85 1.03.332.108.939.31 1.235.42 6.951 2.662 16.468 3.684 22.568-1.291.145-.12-.008-.344-.173-.254zm50.352 0a16.495 16.495 0 01-3.98 1.545c-5.794 1.388-12.181.183-17.691-1.847a40.57 40.57 0 00-1.367-.454c-5.062-1.561-10.684-1.914-15.718-.072-1.383.519-2.742 1.177-3.938 2.048-.152.11-.013.346.157.264 1.291-.62 2.671-1.06 4.057-1.389 4.931-1.136 10.083-.517 14.85 1.03.332.108.939.31 1.236.42 6.95 2.662 16.467 3.684 22.567-1.291.145-.12-.008-.344-.173-.254zm50.353 0a16.502 16.502 0 01-3.981 1.545c-5.794 1.388-12.18.183-17.691-1.847a40.57 40.57 0 00-1.367-.454c-5.062-1.561-10.684-1.914-15.717-.072-1.384.519-2.743 1.177-3.938 2.048-.152.11-.013.346.156.264 1.291-.62 2.671-1.06 4.057-1.389 4.932-1.136 10.083-.517 14.85 1.03.333.108.939.31 1.235.42 6.951 2.662 16.468 3.684 22.568-1.291.145-.12-.008-.344-.173-.254h.001zm150.571.004c.145-.117-.008-.342-.173-.253a16.48 16.48 0 01-3.979 1.544c-5.795 1.39-12.181.183-17.692-1.846a42.22 42.22 0 00-1.367-.454c-5.062-1.561-10.684-1.914-15.717-.07-1.384.518-2.743 1.175-3.938 2.046-.152.11-.013.346.156.265 1.291-.62 2.671-1.062 4.057-1.389 4.932-1.137 10.083-.518 14.85 1.029.333.109.939.311 1.235.42 6.951 2.662 16.468 3.684 22.568-1.291zm-100.876-.335a16.503 16.503 0 01-3.98 1.545c-5.794 1.39-12.182.183-17.692-1.846a41.054 41.054 0 00-1.366-.454c-5.063-1.561-10.684-1.914-15.718-.071-1.384.518-2.743 1.175-3.939 2.047-.151.11-.013.346.157.264 1.292-.62 2.672-1.06 4.057-1.388 4.931-1.137 10.083-.518 14.85 1.029.332.108.939.31 1.236.42 6.95 2.662 16.467 3.684 22.567-1.291.145-.12-.008-.344-.173-.254h.001zm50.352.082a16.511 16.511 0 01-3.98 1.545c-5.795 1.389-12.181.183-17.691-1.847a40.401 40.401 0 00-1.368-.454c-5.062-1.56-10.684-1.913-15.717-.071-1.383.518-2.742 1.176-3.938 2.048-.151.11-.013.346.156.264 1.292-.62 2.672-1.061 4.058-1.389 4.931-1.137 10.083-.517 14.85 1.03.332.108.938.31 1.235.419 6.951 2.662 16.467 3.685 22.568-1.29.144-.119-.009-.344-.173-.255zm545.37-14.822c-1.38.52-2.74 1.177-3.94 2.048-.15.11-.01.345.16.265 1.29-.621 2.67-1.062 4.06-1.39 4.93-1.136 10.08-.517 14.85 1.03.33.109.94.31 1.23.42 6.95 2.661 16.47 3.684 22.57-1.292.15-.118-.01-.343-.17-.253a16.664 16.664 0 01-3.98 1.544c-5.8 1.39-12.18.183-17.69-1.847-.45-.156-.93-.313-1.37-.454-5.06-1.56-10.68-1.913-15.72-.07zm71.44-10.571c1.3-.62 2.68-1.062 4.06-1.39 4.93-1.136 10.08-.516 14.85 1.03.33.109.94.311 1.24.42 6.95 2.662 16.46 3.685 22.56-1.292.15-.118 0-.343-.17-.253a16.318 16.318 0 01-3.98 1.545c-5.79 1.389-12.18.183-17.69-1.847-.44-.157-.92-.314-1.37-.455-5.06-1.56-10.68-1.913-15.71-.07-1.39.518-2.75 1.176-3.94 2.047-.15.111-.02.346.15.265zm-21.2 10.653c-1.38.518-2.74 1.176-3.94 2.047-.15.11-.01.346.16.265 1.29-.621 2.67-1.062 4.06-1.39 4.93-1.136 10.08-.517 14.85 1.03.33.109.93.31 1.23.42 6.95 2.661 16.47 3.684 22.57-1.292.14-.118-.01-.343-.17-.253a16.668 16.668 0 01-3.98 1.544c-5.8 1.39-12.19.184-17.7-1.847-.44-.157-.92-.313-1.36-.454-5.07-1.56-10.69-1.913-15.72-.07zm50.24 0c-1.38.518-2.74 1.176-3.94 2.047-.15.11-.01.346.16.265 1.29-.621 2.67-1.062 4.05-1.39 4.93-1.136 10.09-.517 14.85 1.03.34.109.94.31 1.24.42 6.95 2.661 16.47 3.684 22.57-1.292.14-.118-.01-.343-.18-.253a16.347 16.347 0 01-3.98 1.544c-5.79 1.39-12.18.184-17.69-1.847-.44-.157-.92-.313-1.36-.454-5.07-1.56-10.69-1.913-15.72-.07zM1143.1 3.639c1.29-.62 2.67-1.062 4.06-1.39 4.93-1.136 10.08-.516 14.85 1.03.33.109.94.311 1.23.42 6.96 2.662 16.47 3.685 22.57-1.292.15-.118-.01-.343-.17-.253a16.637 16.637 0 01-3.98 1.545c-5.79 1.389-12.18.183-17.69-1.847-.44-.157-.92-.314-1.37-.455-5.06-1.56-10.68-1.913-15.72-.07-1.38.518-2.74 1.176-3.93 2.047-.16.111-.02.346.15.265zm-150.397.249c1.291-.62 2.671-1.062 4.056-1.39 4.931-1.136 10.081-.516 14.851 1.03.33.109.94.311 1.24.42 6.95 2.662 16.46 3.685 22.56-1.292.15-.118-.01-.343-.17-.253a16.483 16.483 0 01-3.98 1.545c-5.79 1.389-12.18.183-17.69-1.847-.44-.157-.92-.314-1.37-.455-5.06-1.56-10.68-1.913-15.716-.07-1.383.518-2.742 1.176-3.938 2.047-.152.111-.013.346.156.265h.001zm100.047-.33c1.29-.62 2.67-1.062 4.06-1.39 4.93-1.136 10.08-.516 14.85 1.03.33.109.94.311 1.23.42 6.95 2.662 16.47 3.684 22.57-1.292.15-.118-.01-.343-.17-.253a16.644 16.644 0 01-3.98 1.545c-5.8 1.388-12.18.183-17.69-1.847a52.46 52.46 0 00-1.37-.455c-5.06-1.56-10.68-1.913-15.72-.07-1.38.518-2.74 1.176-3.94 2.047-.15.11-.01.346.16.264zm-150.399.33c1.291-.62 2.671-1.062 4.056-1.39 4.932-1.136 10.084-.516 14.851 1.03.332.109.939.311 1.235.42 6.951 2.662 16.467 3.685 22.568-1.292.145-.118-.009-.343-.173-.253a16.499 16.499 0 01-3.98 1.545c-5.794 1.389-12.181.183-17.691-1.847a41.424 41.424 0 00-1.367-.455c-5.063-1.56-10.684-1.913-15.718-.07-1.383.518-2.742 1.176-3.938 2.047-.152.111-.013.346.156.265h.001zm29.148 10.652c-1.384.518-2.743 1.176-3.938 2.047-.152.11-.013.346.156.265 1.292-.621 2.672-1.062 4.057-1.39 4.932-1.136 10.083-.517 14.851 1.03.332.109.938.31 1.235.42 6.951 2.661 16.47 3.684 22.57-1.292.14-.118-.01-.342-.18-.253a16.347 16.347 0 01-3.98 1.544c-5.79 1.39-12.176.183-17.687-1.847a41.976 41.976 0 00-1.367-.454c-5.062-1.56-10.684-1.912-15.717-.07zm100.481 0c-1.39.518-2.75 1.176-3.94 2.047-.15.11-.02.346.15.265 1.3-.621 2.68-1.062 4.06-1.39 4.93-1.136 10.08-.517 14.85 1.03.33.109.94.31 1.24.42 6.95 2.661 16.46 3.684 22.56-1.292.15-.118 0-.342-.17-.253a16.506 16.506 0 01-3.98 1.544c-5.79 1.39-12.18.183-17.69-1.847-.44-.156-.92-.313-1.37-.454-5.06-1.56-10.68-1.912-15.71-.07zm-50.24 0c-1.39.518-2.75 1.176-3.94 2.047-.15.11-.01.346.16.265 1.29-.621 2.67-1.062 4.05-1.39 4.93-1.136 10.09-.517 14.85 1.03.33.109.94.31 1.24.42 6.95 2.661 16.47 3.684 22.57-1.292.14-.118-.01-.342-.18-.253a16.347 16.347 0 01-3.98 1.544c-5.79 1.39-12.18.183-17.69-1.847-.44-.156-.92-.313-1.37-.454-5.06-1.56-10.68-1.912-15.71-.07zm21.31-10.652c1.3-.62 2.68-1.062 4.06-1.39 4.93-1.136 10.08-.516 14.85 1.03.33.109.94.311 1.24.42 6.95 2.662 16.46 3.685 22.56-1.292.15-.118 0-.343-.17-.253a16.324 16.324 0 01-3.98 1.545c-5.79 1.389-12.18.183-17.69-1.847-.44-.157-.92-.314-1.37-.455-5.06-1.56-10.68-1.913-15.71-.07-1.39.518-2.75 1.176-3.94 2.047-.15.111-.01.346.15.265zm-58.162 25.393a16.495 16.495 0 01-3.98 1.545c-5.794 1.388-12.181.183-17.691-1.847a41.334 41.334 0 00-1.367-.454c-5.063-1.561-10.684-1.914-15.718-.072-1.383.519-2.742 1.177-3.938 2.048-.151.11-.013.346.156.264 1.292-.62 2.672-1.06 4.058-1.389 4.931-1.136 10.083-.517 14.85 1.03.332.108.939.31 1.235.42 6.951 2.662 16.468 3.684 22.568-1.291.145-.12-.008-.344-.173-.254zm50.352 0a16.64 16.64 0 01-3.98 1.545c-5.79 1.388-12.18.183-17.69-1.847-.44-.158-.92-.314-1.37-.454-5.06-1.561-10.68-1.914-15.716-.072-1.383.519-2.742 1.177-3.938 2.048-.152.11-.013.346.157.264 1.291-.62 2.671-1.06 4.057-1.389 4.93-1.136 10.08-.517 14.85 1.03.33.108.94.31 1.24.42 6.95 2.662 16.46 3.684 22.56-1.291.15-.12-.01-.344-.17-.254zm50.35 0a16.32 16.32 0 01-3.98 1.545c-5.79 1.388-12.18.183-17.69-1.847-.44-.158-.92-.314-1.37-.454-5.06-1.561-10.68-1.914-15.71-.072-1.39.519-2.75 1.177-3.94 2.048-.15.11-.01.346.15.264 1.3-.62 2.68-1.06 4.06-1.389 4.93-1.136 10.08-.517 14.85 1.03.33.108.94.31 1.24.42 6.95 2.662 16.46 3.684 22.57-1.291.14-.12-.01-.344-.18-.254zm150.57.004c.15-.117 0-.342-.17-.253a16.313 16.313 0 01-3.98 1.544c-5.79 1.39-12.18.183-17.69-1.846-.44-.157-.92-.314-1.37-.454-5.06-1.561-10.68-1.914-15.71-.07-1.39.518-2.75 1.175-3.94 2.046-.15.11-.02.346.15.265 1.3-.62 2.68-1.062 4.06-1.389 4.93-1.137 10.08-.518 14.85 1.029.33.109.94.311 1.24.42 6.95 2.662 16.46 3.684 22.56-1.291zm-100.87-.335a16.632 16.632 0 01-3.98 1.545c-5.8 1.39-12.18.183-17.69-1.846a51.94 51.94 0 00-1.37-.454c-5.06-1.561-10.68-1.914-15.72-.071-1.38.518-2.74 1.175-3.94 2.047-.15.11-.01.346.16.264 1.29-.62 2.67-1.06 4.06-1.388 4.93-1.137 10.08-.518 14.85 1.029.33.108.94.31 1.23.42 6.95 2.662 16.47 3.684 22.57-1.291.15-.12-.01-.344-.17-.254zm50.35.082a16.64 16.64 0 01-3.98 1.545c-5.79 1.389-12.18.183-17.69-1.847-.44-.157-.92-.313-1.37-.454-5.06-1.56-10.68-1.913-15.72-.071-1.38.518-2.74 1.176-3.93 2.048-.16.11-.02.346.15.264 1.29-.62 2.67-1.061 4.06-1.389 4.93-1.137 10.08-.517 14.85 1.03.33.108.94.31 1.24.419 6.95 2.662 16.46 3.685 22.56-1.29.15-.119-.01-.344-.17-.255z" fill="#1A96D5"/></svg>