<svg width="148" height="35" fill="none" xmlns="http://www.w3.org/2000/svg"><g clip-path="url(#clip0_89_2076)"><path d="M26.466 25.25c-.092-.038.3-.934.533-2.08.235-1.155.04-2.162-.023-2.903A8.96 8.96 0 0026.414 18a12.003 12.003 0 00-.316-.712c-.252-.54-.795-1.764-1.752-2.894-.962-1.138-2.128-2.058-3.455-2.81a15.361 15.361 0 00-3.54-1.479c-2.122-.577-4.253-1.124-6.375-1.702-1.398-.38-2.762-.84-4.051-1.487-1.802-.903-2.801-2.3-3.09-4.161-.156-1.005-.14-1.578-.006-2.582.006-.043.015-.086.025-.129.002-.01.013-.02.03-.044.038.046.075.086.106.13.56.792 1.37 1.136 2.23 1.602 2.169 1.178 4.56 1.516 4.566 1.517 5.738 1.291 4.873 1.106 5.419 1.223 3.76.806 5.05 1.067 6.662 1.97a11.912 11.912 0 012.151 1.549 13.254 13.254 0 013.418 4.782s.314.772.501 1.641c.249 1.159.31 2.858.049 4.56-.142.917-.682 2.59-.945 3.24-.217.536-.43 1.055-.755 1.695-.077.152-.708 1.389-.82 1.341z" fill="#2597D3"/><path d="M11.05 32.769c-1.959 0-3.51.003-5.59.003l-.003-.003V6.552c0-.003.003-.005.006-.003a10.615 10.615 0 002.202 1.469c1.675.856 3.383 1.378 3.383 1.378s-.01.6.004.817c.008.15-.001.34-.001.49v21.556l.003.507c0 .002-.001.003-.003.003zm52.418-1.966c-2.198.426-4.415.55-6.647.443-.502-.024-1.004-.065-1.505-.1-.076-.006-.15-.016-.229-.026a.114.114 0 01-.098-.114V20.559c0-.063.05-.114.112-.114.046 0 2.932.343 4.242.247 1.747-.129 2.462-.223 4.207-.639 0 0 .143.035.143.11v.094c0 3.378-.002 6.878.004 10.255 0 .184-.042.254-.229.29zm8.016-2.765c-1.574.687-2.103.872-2.18.849l-.14-.043a.117.117 0 01-.017-.062V5.568c-.037-.002-.05-.006-.063-.003-1.71.333-3.42.671-5.132.996-.182.034-.223.102-.222.276.005 2.334.003 5.159.003 7.492 0 .055.017.118-.004.162-.029.059-.084.143-.133.147-.735.063-1.47.138-2.206.165-1.544.058-1.706.05-3.242-.123-.585-.066-2.252-.304-3.147-.802-.05-.027-.098-.056-.098-.113V5.823c0-.337 0-.338-.322-.276l-4.106.795c-.303.059-.604.122-.909.183a.115.115 0 00-.09.113v.158c.003.759.01 1.518.011 2.277v.553c.043.058 3.777 5.153 1.028 12.47a16.87 16.87 0 01-.714 1.784 3.36 3.36 0 00-.316 1.408c-.004 1.247-.007 2.494-.022 3.74-.004.35-.001.531 0 .559 0 .002-.002.003-.004.003a25.72 25.72 0 01-.252-.049c-1.074-.244-2.333-.846-3.407-1.104a.065.065 0 00-.047.007c-1.476.844-4.206 2.105-7.722 2.07a14.967 14.967 0 01-3.871-.562c-3.292-.925-5.552-2.76-6.808-3.99a.064.064 0 00-.1.012 15.482 15.482 0 01-4.301 4.762c-.056.04-.016.126.052.111 1.539-.34 3.016-.4 3.902-.387.298.005.622.023 2.293.192 1.305.132 3.03.316 3.77.409 2.981.372 6.148 1.267 10.487 2.21 5.007 1.088 7.877 1.436 9.123 1.56.201.021.33.033.366.036 1.325.12 4.12.285 6.985-.153 4.946-.757 8.609-3.086 9.171-3.451a22.52 22.52 0 005.035-4.476c.043-.053-.019-.127-.08-.095-.196.102-.432.224-.698.364-1.238.65-1.857.975-1.873.982z" fill="#2597D3"/><path d="M50.407 14.433c-.747-3.222-2.529-5.7-5.463-7.353-2.131-1.202-4.437-1.707-6.964-1.696a14.998 14.998 0 00-3.363.364c-.906.205-1.678.479-2.381.836-1.524.773-2.483 1.741-3.075 2.358a13.27 13.27 0 00-1.216 1.464.074.074 0 000 .086c.315.448.578 1.064.927 1.84.182.403.715 1.653.916 3.397.04.355.293 1.609.02 3.465-.202 1.372-.69 3.532-2.024 6.02a.076.076 0 00.007.083c.256.331.518.657.814.948a13.142 13.142 0 002.002 1.589c.322.192 1.449.84 3.068 1.174.67.138 2.643.479 4.883-.164 3.745-1.074 5.581-4.132 5.99-4.852.306-.622.643-1.392.848-2.355.362-1.703.196-3.2.003-4.174-.005-.022-.037-.02-.037.003a7.132 7.132 0 01-1.051 3.846c-.255.412-1.404 2.319-3.84 3.043-1.799.535-3.59.553-5.315-.257-2.127-.998-3.42-2.67-3.897-4.929-.411-1.95-.153-3.827.874-5.556 1.045-1.761 2.642-2.765 4.681-3.075 1.486-.226 2.644.037 3.24.183.43.106 3.028.782 4.816 3.041.485.612.78 1.173.878 1.368a8.145 8.145 0 01.787 2.568 9.825 9.825 0 01-.196 3.841c0 .003-.278 1.564-1.308 3.108-2.215 3.322-5.684 4.572-7.361 5.023-.088.024-.07.15.02.152 1.495.019 2.968-.205 4.42-.606 6.172-1.703 8.459-6.982 8.655-10.836a14.21 14.21 0 00-.358-3.947z" fill="#2597D3"/><path d="M25.86 19.123c-.23-.75-.54-1.47-.822-2.2-.083-.216-.192-.42-.309-.667-.001-.003-.006-.003-.006.001.011.526-.009 1.246-.148 2.085-.096.582-.436 2.515-1.632 4.234a13.846 13.846 0 01-4.916 3.696 14.1 14.1 0 01-6.377 1.208.003.003 0 00-.004.003v5.232c0 .001.001.003.003.003a20.68 20.68 0 004.836-.473l.252-.058c.877-.209 2.512-.61 4.302-1.601.497-.276 1.806-1.012 2.901-2.156a8.395 8.395 0 001.205-1.57c.149-.251.294-.53.43-.837.584-1.33.655-2.482.697-3.273.016-.294.12-1.898-.412-3.627zM4.886 27.76a.003.003 0 00-.005-.004 8.058 8.058 0 00-2.211 1.3 7.753 7.753 0 00-2.172 2.872A7.282 7.282 0 000 33.681c0 .003.002.005.005.004.132-.071 2.394-1.265 4.88-.935.002 0 .004-.001.004-.003l-.003-4.988zM84.15 10.585c-.075.634-.313 1.122-.713 1.466-.4.345-.932.517-1.595.517-.72 0-1.296-.254-1.73-.761-.433-.507-.65-1.186-.65-2.036v-.576c0-.556.102-1.046.303-1.468a2.24 2.24 0 01.86-.973c.37-.226.8-.339 1.288-.339.647 0 1.165.178 1.556.533.39.355.617.846.681 1.474h-.807c-.07-.478-.22-.825-.454-1.04-.233-.214-.558-.321-.976-.321-.513 0-.915.186-1.206.56-.292.373-.438.904-.438 1.593v.58c0 .65.138 1.168.415 1.552.275.384.662.576 1.158.576.446 0 .788-.1 1.026-.298.239-.199.397-.545.475-1.039h.807zm3.187-.612l1.4-3.475h.933l-2.153 4.988c-.145.319-.28.544-.406.677a1.269 1.269 0 01-.44.304 1.66 1.66 0 01-.635.105c-.22 0-.36-.012-.422-.037l.025-.625.38.016c.293 0 .511-.138.653-.415l.105-.214.159-.366-2.075-4.433h.9l1.576 3.475zm3.864 1.867h2.97V7.143h-2.062l-.088 1.762c-.037.689-.13 1.276-.278 1.762-.15.486-.33.877-.542 1.173zm4.562 2.114h-.798v-1.468h-4.37v1.472h-.803l-.004-2.118h.497c.262-.29.47-.68.625-1.17.155-.49.252-1.026.291-1.61l.134-2.562h3.642v5.342h.795l-.009 2.114zm4.747-4.656c0-.71-.145-1.255-.435-1.634-.29-.38-.696-.57-1.217-.57-.508 0-.907.19-1.198.57-.291.38-.441.906-.45 1.581v.44c0 .688.147 1.23.441 1.622.294.394.7.59 1.215.59.519 0 .92-.185 1.205-.557.284-.371.431-.904.439-1.597v-.445zm.799.387c0 .587-.101 1.099-.302 1.536a2.25 2.25 0 01-.853 1.002c-.368.23-.797.345-1.288.345-.48 0-.904-.116-1.275-.348a2.306 2.306 0 01-.864-.99c-.205-.43-.31-.927-.315-1.492v-.432c0-.575.101-1.084.305-1.525.203-.442.491-.78.864-1.014a2.347 2.347 0 011.277-.351c.488 0 .918.115 1.29.347.372.232.659.567.86 1.007.2.44.301.953.301 1.536v.379zm3.098-.893l1.46-2.294h.945l-1.924 2.97 1.97 3.018h-.953l-1.498-2.337-1.505 2.337h-.949l1.974-3.019-1.928-2.97h.94l1.468 2.295zm7.164.506c0-.71-.144-1.255-.435-1.634-.289-.38-.695-.57-1.216-.57-.508 0-.907.19-1.199.57-.291.38-.441.906-.449 1.581v.44c0 .688.147 1.23.441 1.622.294.394.699.59 1.215.59.518 0 .92-.185 1.204-.557.285-.371.431-.904.439-1.597v-.445zm.799.387c0 .587-.1 1.099-.301 1.536a2.256 2.256 0 01-.853 1.002c-.368.23-.798.345-1.288.345a2.35 2.35 0 01-1.275-.348 2.306 2.306 0 01-.864-.99c-.205-.43-.31-.927-.316-1.492v-.432c0-.575.102-1.084.305-1.525.204-.442.492-.78.864-1.014a2.347 2.347 0 011.278-.351c.487 0 .917.115 1.29.347.372.232.658.567.859 1.007.201.44.301.953.301 1.536v.379zm1.982 2.155h2.969V7.143h-2.061l-.088 1.762c-.037.689-.129 1.276-.278 1.762-.149.486-.33.877-.542 1.173zm4.563 2.114h-.799v-1.468h-4.371v1.472h-.802l-.005-2.118h.498c.262-.29.471-.68.625-1.17a6.83 6.83 0 00.291-1.61l.134-2.562h3.642v5.342h.795l-.008 2.114zm5.641-1.468h-.807V9.718h-3.07v2.768h-.803V6.498h.803v2.574h3.07V6.498h.807v5.988zm2.555-2.213h2.07l-1.037-2.8-1.033 2.8zm2.308.646h-2.551l-.572 1.567h-.828l2.325-5.988h.702l2.33 5.988h-.824l-.582-1.567zm2.928-2.618c0 .363.115.654.345.874.23.22.55.33.96.333h1.179V7.144h-1.142c-.435 0-.767.101-.997.304-.23.204-.345.488-.345.853zm2.484 4.185v-2.332h-1.405l-1.259 2.332h-.857l1.413-2.55c-.786-.304-1.179-.849-1.179-1.633 0-.57.19-1.014.571-1.33.38-.317.909-.475 1.587-.475h1.936v5.988h-.807zM84.322 22.593h-.807V17.25h-3.002v5.343h-.803v-5.988h4.612v5.988zm2.513-2.213h2.07l-1.037-2.8-1.033 2.8zm2.309.646h-2.551l-.573 1.567h-.828l2.325-5.988h.703l2.329 5.988h-.824l-.581-1.567zm6.657-.333c-.075.633-.313 1.122-.713 1.466-.4.344-.932.516-1.595.516-.72 0-1.296-.253-1.73-.76-.433-.508-.65-1.186-.65-2.037v-.575c0-.557.101-1.046.303-1.469.203-.422.489-.746.86-.972.37-.226.8-.34 1.288-.34.646 0 1.165.178 1.555.533.39.355.618.847.682 1.475h-.807c-.07-.479-.22-.826-.454-1.04-.233-.214-.558-.322-.976-.322-.513 0-.915.187-1.206.56-.292.373-.438.904-.438 1.593v.58c0 .65.138 1.168.415 1.552.276.384.662.576 1.158.576.446 0 .788-.099 1.026-.297.239-.2.397-.546.475-1.04h.807zm5.575 0c-.075.633-.313 1.122-.713 1.466-.4.344-.932.516-1.596.516-.719 0-1.295-.253-1.729-.76-.433-.508-.65-1.186-.65-2.037v-.575c0-.557.101-1.046.303-1.469.202-.422.489-.746.86-.972.37-.226.8-.34 1.287-.34.647 0 1.166.178 1.556.533.39.355.618.847.682 1.475h-.807c-.07-.479-.221-.826-.454-1.04-.233-.214-.558-.322-.977-.322-.513 0-.915.187-1.206.56-.291.373-.437.904-.437 1.593v.58c0 .65.138 1.168.414 1.552.276.384.662.576 1.158.576.447 0 .789-.099 1.027-.297.239-.2.397-.546.475-1.04h.807zm2.149-.313h2.071l-1.038-2.8-1.033 2.8zm2.309.646h-2.551l-.573 1.567h-.828l2.325-5.988h.703l2.329 5.988h-.824l-.581-1.567zm6.502-1.164h-.652v2.73h-.803v-2.73h-.69l-1.723 2.73h-1.004l2.05-3.158-1.891-2.829h.95l1.618 2.6h.69v-2.6h.803v2.6h.661l1.618-2.6h.945l-1.89 2.825 2.049 3.163h-.999l-1.732-2.73zm7.335-3.257h.803v5.988h-.803v-4.614l-2.998 4.614h-.807v-5.988h.807v4.614l2.998-4.614zm3.07 2.998h1.443c.429 0 .758-.1.987-.299.228-.199.342-.486.342-.863 0-.357-.114-.642-.342-.857-.229-.214-.543-.325-.941-.333h-1.489v2.352zm0 .646v2.344h-.803v-5.988h2.246c.666 0 1.188.167 1.566.502.377.334.566.777.566 1.328 0 .582-.184 1.029-.554 1.343-.369.314-.898.47-1.587.47h-1.434zm9.079.444c-.075.633-.313 1.122-.713 1.466-.4.344-.932.516-1.596.516-.719 0-1.296-.253-1.729-.76-.433-.508-.65-1.186-.65-2.037v-.575c0-.557.101-1.046.303-1.469.202-.422.488-.746.859-.972.371-.226.801-.34 1.288-.34.647 0 1.166.178 1.556.533.39.355.617.847.682 1.475h-.807c-.07-.479-.221-.826-.454-1.04-.233-.214-.558-.322-.977-.322-.513 0-.915.187-1.206.56-.291.373-.437.904-.437 1.593v.58c0 .65.138 1.168.414 1.552.276.384.662.576 1.158.576.446 0 .789-.099 1.027-.297.238-.2.397-.546.475-1.04h.807zm2.676-.79h-.74v2.69h-.803v-5.988h.803v2.64h.627l2.129-2.64h1l-2.326 2.903 2.497 3.085h-.983l-2.204-2.69zm4.977.477h2.07l-1.037-2.8-1.033 2.8zm2.308.646h-2.551l-.573 1.567h-.828l2.326-5.988h.702l2.329 5.988h-.824l-.581-1.567zm2.927-2.618c0 .362.116.654.346.873.229.22.549.332.959.334h1.179v-2.364h-1.141c-.435 0-.768.101-.997.304-.23.204-.346.488-.346.853zm2.484 4.185V20.26h-1.405l-1.258 2.332h-.858l1.414-2.55c-.786-.305-1.18-.849-1.18-1.633 0-.57.191-1.014.571-1.33.381-.317.91-.475 1.587-.475H148v5.988h-.808zm-65.94 7.417h-.74v2.69h-.803v-5.988h.803v2.64h.627l2.129-2.64h1l-2.326 2.904L84.44 32.7h-.983l-2.204-2.69zm7.678-.497c0-.71-.145-1.255-.434-1.635-.29-.38-.696-.57-1.217-.57-.508 0-.907.19-1.198.57-.292.38-.442.907-.45 1.581v.44c0 .689.147 1.23.441 1.623.294.393.7.59 1.215.59.519 0 .92-.186 1.204-.557.285-.372.431-.904.44-1.598v-.444zm.8.386c0 .587-.1 1.1-.302 1.537-.2.437-.485.77-.853 1.001-.368.23-.797.346-1.288.346a2.35 2.35 0 01-1.275-.348 2.306 2.306 0 01-.864-.991c-.205-.43-.31-.926-.316-1.491v-.432c0-.576.102-1.084.306-1.526.203-.441.491-.78.863-1.014a2.346 2.346 0 011.278-.351c.488 0 .918.116 1.29.347.372.232.659.568.86 1.008.2.44.3.952.3 1.536v.378zm2.24-3.187l1.991 4.886 1.99-4.886h1.042V32.7h-.803v-2.332l.075-2.517-1.998 4.849h-.615l-1.995-4.836.08 2.504V32.7h-.803v-5.988h1.037zm11.091 5.988h-.807v-5.342h-3.003V32.7h-.803v-5.988h4.613V32.7zm2.513-2.212h2.07l-1.037-2.801-1.033 2.8zm2.309.645h-2.551l-.573 1.567h-.828l2.325-5.988h.702l2.33 5.988h-.824l-.581-1.567zm6.904 1.567h-.807v-2.767h-3.07V32.7h-.803v-5.988h.803v2.575h3.07v-2.575h.807V32.7zm5.265-5.988h.803V32.7h-.803v-4.614l-2.998 4.614h-.807v-5.988h.807v4.614l2.998-4.614zm2.969 1.803c0 .363.115.654.345.874.23.22.55.331.96.334h1.179v-2.365h-1.142c-.435 0-.767.101-.997.305-.23.203-.345.487-.345.852zm2.484 4.185v-2.332H124.1l-1.259 2.332h-.857l1.413-2.55c-.786-.304-1.179-.848-1.179-1.632 0-.57.19-1.014.571-1.33.38-.318.909-.476 1.587-.476h1.936V32.7h-.807z" fill="#E95522"/></g><defs><clipPath id="clip0_89_2076"><path fill="#fff" d="M0 0h148v35H0z"/></clipPath></defs></svg>