<svg width="50" height="50" fill="none" xmlns="http://www.w3.org/2000/svg"><rect width="50" height="50" rx="25" fill="#fff"/><path d="M13.91 24.115s10.172-4.285 13.7-5.793c1.353-.604 5.94-2.535 5.94-2.535s2.116-.845 1.94 1.207c-.06.845-.53 3.802-1 7-.706 4.526-1.47 9.474-1.47 9.474s-.118 1.388-1.117 1.63c-1 .24-2.646-.846-2.94-1.087-.236-.18-4.41-2.896-5.939-4.224-.412-.362-.882-1.086.059-1.931a228.166 228.166 0 006.174-6.034c.705-.725 1.41-2.414-1.529-.363-4.175 2.957-8.29 5.733-8.29 5.733s-.942.604-2.705.06c-1.765-.543-3.823-1.267-3.823-1.267s-1.41-.905 1-1.87z" fill="#111"/></svg>