<svg width="50" height="50" fill="none" xmlns="http://www.w3.org/2000/svg"><rect width="50" height="50" rx="25" fill="#fff"/><path fill-rule="evenodd" clip-rule="evenodd" d="M39.59 17.801c.21-.661 0-1.147-1.007-1.147h-3.325c-.845 0-1.235.42-1.447.883 0 0-1.69 3.866-4.086 6.378-.775.727-1.128.958-1.55.958-.212 0-.518-.231-.518-.892V17.8c0-.793-.245-1.147-.95-1.147h-5.226c-.528 0-.846.368-.846.717 0 .752 1.198.926 1.322 3.04v4.594c0 1.008-.194 1.19-.617 1.19-1.127 0-3.87-3.884-5.496-8.328-.319-.864-.638-1.213-1.488-1.213H11.03c-.95 0-1.14.42-1.14.883 0 .826 1.127 4.924 5.25 10.344 2.747 3.701 6.619 5.707 10.142 5.707 2.114 0 2.375-.445 2.375-1.213v-2.797c0-.892.2-1.07.87-1.07.493 0 1.339.232 3.311 2.017 2.255 2.114 2.627 3.063 3.895 3.063h3.326c.95 0 1.425-.445 1.15-1.325-.3-.876-1.376-2.148-2.804-3.655-.775-.86-1.938-1.785-2.29-2.248-.493-.594-.352-.859 0-1.388 0 0 4.051-5.353 4.474-7.171z" fill="#111"/></svg>