<svg width="194" height="341" fill="none" xmlns="http://www.w3.org/2000/svg"><path d="M121.069 286.751c6.95 2.402 16.467 3.325 22.568-1.164.144-.107-.009-.31-.173-.229a17.638 17.638 0 01-3.98 1.393c-5.795 1.254-12.181.166-17.692-1.666a43.464 43.464 0 00-1.367-.409c-5.063-1.409-10.684-1.727-15.718-.065-1.383.468-2.742 1.061-3.938 1.848-.152.1-.013.312.157.238 1.291-.559 2.671-.957 4.057-1.253 4.931-1.025 10.083-.466 14.85.929.333.098.939.28 1.236.378zm-45.243 13.498c1.292-.559 2.672-.958 4.057-1.253 4.932-1.025 10.083-.466 14.85.929.333.098.94.28 1.236.378 6.951 2.402 16.467 3.325 22.567-1.165.146-.106-.008-.309-.172-.228a17.62 17.62 0 01-3.98 1.393c-5.794 1.253-12.181.166-17.692-1.666a43.318 43.318 0 00-1.366-.41c-5.063-1.408-10.684-1.726-15.718-.064-1.383.468-2.743 1.061-3.938 1.847-.152.101-.013.313.156.239zm50.239 0c1.291-.559 2.671-.958 4.056-1.253 4.932-1.025 10.083-.466 14.851.929.332.098.939.28 1.235.378 6.951 2.402 16.467 3.325 22.568-1.165.145-.106-.009-.309-.172-.228a17.655 17.655 0 01-3.98 1.393c-5.795 1.253-12.182.166-17.693-1.666a42.647 42.647 0 00-1.366-.41c-5.063-1.408-10.684-1.726-15.718-.064-1.383.468-2.742 1.061-3.938 1.847-.152.101-.013.313.156.239h.001zM4.004 284.612c-1.384.467-2.743 1.061-3.938 1.847-.152.099-.014.311.156.238 1.291-.56 2.671-.958 4.057-1.253 4.93-1.026 10.083-.467 14.85.929.332.098.938.28 1.235.379 6.951 2.401 16.467 3.324 22.568-1.166.145-.106-.008-.309-.173-.228a17.622 17.622 0 01-3.98 1.393c-5.794 1.254-12.182.165-17.691-1.666a46.137 46.137 0 00-1.367-.41c-5.063-1.408-10.684-1.726-15.718-.063zm25.366 13.551c-1.383.468-2.742 1.062-3.938 1.847-.152.1-.013.312.156.239 1.292-.56 2.672-.958 4.057-1.253 4.932-1.026 10.083-.467 14.851.929.332.098.939.28 1.235.379 6.951 2.402 16.467 3.324 22.568-1.166.145-.106-.009-.309-.173-.228a17.621 17.621 0 01-3.98 1.393c-5.794 1.254-12.18.166-17.692-1.666a45.964 45.964 0 00-1.367-.41c-5.062-1.408-10.683-1.726-15.717-.063v-.001zm141.394-11.943c6.951 2.402 16.467 3.325 22.567-1.164.145-.108-.008-.31-.173-.229a17.595 17.595 0 01-3.979 1.393c-5.795 1.254-12.181.166-17.692-1.666a41.925 41.925 0 00-1.367-.409c-5.062-1.409-10.684-1.727-15.717-.064-1.384.467-2.742 1.06-3.938 1.847-.152.1-.013.312.156.238 1.292-.559 2.671-.957 4.057-1.253 4.932-1.025 10.083-.466 14.85.929.333.098.939.281 1.236.378zm-116.408-1.608c-1.384.467-2.743 1.061-3.938 1.847-.152.099-.013.311.156.238 1.291-.56 2.671-.958 4.057-1.253 4.932-1.026 10.083-.467 14.85.929.332.098.939.28 1.236.379 6.95 2.401 16.467 3.324 22.567-1.166.145-.106-.008-.309-.173-.228a17.625 17.625 0 01-3.98 1.393c-5.794 1.254-12.181.165-17.691-1.666a45.964 45.964 0 00-1.367-.41c-5.063-1.408-10.684-1.726-15.717-.063zm138.803-178.843a17.591 17.591 0 01-3.98 1.394c-5.794 1.253-12.182.165-17.692-1.666a43.432 43.432 0 00-1.366-.41c-5.063-1.409-10.684-1.727-15.718-.064-1.383.468-2.742 1.061-3.939 1.847-.151.1-.013.312.157.238 1.292-.559 2.672-.957 4.057-1.253 4.931-1.025 10.083-.466 14.85.929.332.099.939.281 1.236.379 6.95 2.402 16.467 3.324 22.567-1.165.146-.106-.008-.31-.172-.229zm-47.595 11.12c-5.063-1.408-10.684-1.726-15.718-.063-1.383.467-2.742 1.061-3.937 1.847-.152.099-.014.311.156.238 1.291-.56 2.671-.958 4.056-1.253 4.932-1.026 10.084-.467 14.851.929.333.098.939.28 1.235.378 6.951 2.402 16.467 3.325 22.568-1.164.145-.107-.009-.31-.173-.229a17.638 17.638 0 01-3.98 1.393c-5.794 1.254-12.181.166-17.692-1.666a48.488 48.488 0 00-1.366-.41zM4.004 105.128c-1.384.468-2.743 1.061-3.938 1.847-.152.1-.014.312.156.239 1.291-.56 2.671-.958 4.057-1.253 4.93-1.026 10.083-.467 14.85.929.332.098.938.28 1.235.378 6.951 2.403 16.467 3.324 22.568-1.165.145-.106-.008-.309-.173-.228a17.622 17.622 0 01-3.98 1.393c-5.794 1.253-12.182.165-17.691-1.666a43.318 43.318 0 00-1.367-.41c-5.063-1.409-10.684-1.726-15.718-.064zm91.322 11.761c-5.063-1.408-10.684-1.726-15.718-.063-1.383.467-2.742 1.061-3.938 1.847-.151.099-.013.311.157.238 1.291-.56 2.671-.958 4.056-1.253 4.932-1.026 10.084-.467 14.851.929.333.098.939.28 1.235.378 6.951 2.402 16.467 3.325 22.568-1.164.145-.107-.009-.31-.173-.229a17.63 17.63 0 01-3.979 1.393c-5.795 1.254-12.182.166-17.693-1.666a49.036 49.036 0 00-1.366-.41zm-65.956-.063c-1.383.468-2.742 1.061-3.938 1.847-.152.1-.013.312.156.239 1.292-.56 2.672-.958 4.057-1.254 4.932-1.026 10.083-.467 14.851.929.332.098.939.28 1.235.379 6.951 2.401 16.467 3.324 22.568-1.165.145-.107-.009-.31-.173-.228a17.668 17.668 0 01-3.98 1.392c-5.794 1.254-12.18.166-17.692-1.666a45.94 45.94 0 00-1.367-.409c-5.062-1.409-10.683-1.727-15.717-.064zm114.094-10.951a17.64 17.64 0 01-3.98 1.394c-5.795 1.253-12.181.165-17.692-1.667a42.68 42.68 0 00-1.367-.409c-5.062-1.409-10.684-1.727-15.717-.064-1.384.467-2.743 1.061-3.938 1.847-.152.1-.013.312.156.238 1.292-.559 2.671-.957 4.057-1.253 4.932-1.025 10.083-.466 14.85.929.333.098.939.281 1.235.379 6.951 2.402 16.468 3.324 22.568-1.165.145-.107-.008-.31-.173-.229h.001zm-50.352 0a17.637 17.637 0 01-3.98 1.394c-5.795 1.253-12.182.165-17.692-1.667a43.22 43.22 0 00-1.367-.409c-5.062-1.409-10.684-1.727-15.717-.064-1.384.467-2.743 1.061-3.939 1.847-.151.1-.013.312.157.238 1.291-.559 2.671-.957 4.057-1.253 4.93-1.025 10.083-.466 14.85.929.332.098.939.281 1.236.379 6.95 2.402 16.467 3.324 22.567-1.165.145-.107-.008-.31-.173-.229zm27.957 208.265c6.95 2.403 16.467 3.325 22.568-1.164.144-.107-.009-.31-.173-.229a17.589 17.589 0 01-3.98 1.393c-5.795 1.254-12.181.166-17.692-1.665a40.975 40.975 0 00-1.367-.41c-5.063-1.409-10.684-1.727-15.718-.065-1.383.468-2.742 1.062-3.938 1.848-.152.1-.013.312.157.238 1.291-.559 2.671-.957 4.057-1.253 4.931-1.025 10.083-.466 14.85.929.333.098.939.281 1.236.378zm4.996 11.643c1.291-.559 2.671-.958 4.056-1.253 4.932-1.025 10.083-.466 14.851.929.332.098.939.281 1.235.379 6.951 2.402 16.467 3.324 22.568-1.166.145-.106-.009-.309-.172-.228a17.707 17.707 0 01-3.98 1.394c-5.795 1.253-12.182.165-17.693-1.666a42.669 42.669 0 00-1.366-.411c-5.063-1.408-10.684-1.726-15.718-.063-1.383.467-2.742 1.061-3.938 1.846-.152.101-.013.313.156.239h.001zm44.699-11.748c6.951 2.402 16.467 3.325 22.567-1.165.145-.107-.008-.31-.173-.228a17.595 17.595 0 01-3.979 1.393c-5.795 1.253-12.181.165-17.692-1.666a44.583 44.583 0 00-1.367-.41c-5.062-1.408-10.684-1.726-15.717-.064-1.384.468-2.742 1.061-3.938 1.847-.152.1-.013.312.156.239 1.292-.56 2.671-.958 4.057-1.253 4.932-1.026 10.083-.467 14.85.928.333.098.939.281 1.236.379zm-166.76-2.034c-1.384.467-2.743 1.061-3.938 1.846-.152.1-.014.312.156.239 1.291-.56 2.671-.958 4.057-1.253 4.93-1.026 10.083-.467 14.85.929.332.098.938.28 1.235.379 6.951 2.402 16.467 3.324 22.568-1.166.145-.106-.008-.309-.173-.228a17.622 17.622 0 01-3.98 1.393c-5.794 1.254-12.182.165-17.691-1.666a46.137 46.137 0 00-1.367-.41c-5.063-1.408-10.684-1.726-15.718-.064v.001zm25.366 11.697c-1.383.468-2.742 1.061-3.938 1.847-.152.1-.013.312.156.239 1.292-.56 2.672-.958 4.057-1.253 4.932-1.026 10.083-.467 14.851.928.332.098.939.28 1.235.379 6.951 2.402 16.467 3.324 22.568-1.165.145-.107-.009-.31-.173-.229a17.621 17.621 0 01-3.98 1.393c-5.794 1.254-12.18.166-17.692-1.666a49.151 49.151 0 00-1.367-.41c-5.062-1.408-10.683-1.725-15.717-.063zm41.347-9.558c6.95 2.403 16.467 3.325 22.567-1.164.145-.107-.008-.31-.173-.229a17.567 17.567 0 01-3.98 1.393c-5.794 1.254-12.18.166-17.691-1.665a40.26 40.26 0 00-1.367-.41c-5.063-1.409-10.684-1.727-15.717-.065-1.384.468-2.742 1.062-3.938 1.848-.152.1-.014.312.156.238 1.291-.559 2.671-.957 4.057-1.253 4.932-1.025 10.083-.466 14.85.929.333.098.94.281 1.236.378zm5.109 11.643c1.292-.559 2.672-.958 4.057-1.253 4.932-1.025 10.083-.466 14.85.929.333.098.94.281 1.236.379 6.951 2.402 16.467 3.324 22.567-1.166.146-.106-.008-.309-.172-.228a17.672 17.672 0 01-3.98 1.394c-5.794 1.253-12.181.165-17.692-1.666a43.341 43.341 0 00-1.366-.411c-5.063-1.408-10.684-1.726-15.718-.063-1.383.467-2.743 1.061-3.938 1.846-.152.101-.013.313.156.239zM193.159 77.955a17.624 17.624 0 01-3.98 1.393c-5.794 1.253-12.182.166-17.692-1.666a44.801 44.801 0 00-1.366-.41c-5.063-1.408-10.684-1.726-15.718-.064-1.383.468-2.742 1.061-3.939 1.848-.151.1-.013.312.157.238 1.292-.56 2.672-.957 4.057-1.253 4.931-1.025 10.083-.466 14.85.929.332.098.939.28 1.236.379 6.95 2.401 16.467 3.324 22.567-1.165.146-.107-.008-.31-.172-.229zm-49.695.531a17.614 17.614 0 01-3.98 1.393c-5.795 1.254-12.181.166-17.692-1.665a43.484 43.484 0 00-1.367-.41c-5.062-1.409-10.684-1.727-15.717-.064-1.384.467-2.743 1.06-3.938 1.847-.152.1-.013.312.156.239 1.292-.56 2.671-.958 4.057-1.254 4.932-1.025 10.083-.466 14.85.929.333.099.939.28 1.235.378 6.951 2.403 16.468 3.325 22.568-1.164.145-.107-.008-.31-.173-.229h.001zm2.1 12.869c-5.063-1.409-10.684-1.727-15.718-.064-1.383.468-2.742 1.061-3.937 1.847-.152.1-.014.312.156.24 1.291-.561 2.671-.959 4.056-1.254 4.932-1.026 10.084-.467 14.851.928.333.099.939.281 1.235.38 6.951 2.4 16.467 3.324 22.568-1.166.145-.106-.009-.31-.173-.229a17.62 17.62 0 01-3.98 1.394c-5.794 1.254-12.181.165-17.692-1.666a45.375 45.375 0 00-1.366-.41zM93.112 78.486a17.611 17.611 0 01-3.98 1.393c-5.795 1.254-12.182.166-17.692-1.665a44.045 44.045 0 00-1.367-.41c-5.062-1.409-10.684-1.727-15.717-.064-1.384.467-2.743 1.06-3.939 1.847-.151.1-.013.312.157.239 1.291-.56 2.671-.958 4.057-1.254 4.93-1.025 10.083-.466 14.85.929.332.099.939.28 1.236.378 6.95 2.403 16.467 3.325 22.567-1.164.145-.107-.008-.31-.173-.229zm2.214 12.869c-5.063-1.409-10.684-1.727-15.718-.064-1.383.468-2.742 1.061-3.938 1.847-.151.1-.013.312.157.24 1.291-.561 2.671-.959 4.056-1.254 4.932-1.026 10.084-.467 14.851.928.333.099.939.281 1.235.38 6.951 2.4 16.467 3.324 22.568-1.166.145-.106-.009-.31-.173-.229a17.612 17.612 0 01-3.979 1.394c-5.795 1.254-12.182.165-17.693-1.666a45.858 45.858 0 00-1.366-.41zM4.004 77.74C2.62 78.207 1.26 78.8.066 79.587c-.152.1-.014.311.156.238 1.291-.56 2.671-.958 4.057-1.253 4.93-1.026 10.083-.467 14.85.93.332.097.938.279 1.235.378 6.951 2.401 16.467 3.324 22.568-1.166.145-.106-.008-.309-.173-.228a17.631 17.631 0 01-3.98 1.393c-5.794 1.254-12.182.166-17.691-1.666a46.132 46.132 0 00-1.367-.41c-5.063-1.408-10.684-1.726-15.718-.063zm41.084 13.615c-5.063-1.409-10.684-1.727-15.718-.064-1.383.468-2.743 1.061-3.938 1.847-.152.1-.013.312.156.24 1.292-.561 2.672-.959 4.057-1.254 4.932-1.026 10.083-.467 14.85.928.333.099.94.281 1.236.38 6.95 2.4 16.467 3.324 22.567-1.166.145-.106-.008-.31-.173-.229a17.599 17.599 0 01-3.979 1.394c-5.795 1.254-12.181.165-17.692-1.666a45.953 45.953 0 00-1.367-.41zm148.243 66.708c.146-.107-.008-.309-.172-.229a17.64 17.64 0 01-3.98 1.394c-5.794 1.253-12.181.165-17.692-1.666a42.703 42.703 0 00-1.367-.41c-5.062-1.409-10.684-1.727-15.717-.064-1.384.468-2.743 1.061-3.938 1.847-.152.1-.013.312.156.239 1.292-.56 2.671-.958 4.057-1.253 4.932-1.026 10.083-.467 14.85.928.333.099.939.281 1.236.379 6.951 2.402 16.467 3.324 22.567-1.165zm-24.556 11.803c.145-.107-.008-.309-.173-.229a17.606 17.606 0 01-3.98 1.394c-5.794 1.254-12.18.165-17.691-1.666a42.703 42.703 0 00-1.367-.41c-5.062-1.409-10.684-1.727-15.717-.064-1.384.468-2.743 1.061-3.938 1.847-.152.1-.013.312.156.239 1.291-.56 2.671-.958 4.057-1.253 4.932-1.026 10.083-.467 14.85.928.333.098.939.28 1.236.379 6.95 2.402 16.467 3.324 22.567-1.165zM4.004 232.544c-1.384.468-2.743 1.061-3.938 1.847-.152.1-.014.312.156.239 1.291-.56 2.671-.958 4.057-1.253 4.93-1.026 10.083-.467 14.85.929.332.098.938.28 1.235.378 6.951 2.402 16.467 3.324 22.568-1.165.145-.107-.008-.309-.173-.228a17.671 17.671 0 01-3.98 1.393c-5.794 1.253-12.182.165-17.691-1.666a43.318 43.318 0 00-1.367-.41c-5.063-1.409-10.684-1.726-15.718-.064zm125.843-12.553c-1.384.468-2.743 1.061-3.939 1.847-.151.1-.012.312.157.239 1.291-.56 2.671-.958 4.057-1.253 4.931-1.026 10.083-.467 14.85.928.332.098.939.28 1.235.379 6.951 2.402 16.468 3.324 22.568-1.165.145-.107-.008-.309-.173-.228a17.667 17.667 0 01-3.98 1.392c-5.794 1.254-12.181.166-17.691-1.666a46.304 46.304 0 00-1.367-.409c-5.063-1.409-10.684-1.726-15.717-.064zm-50.239-51.1c-1.383.468-2.742 1.061-3.938 1.847-.151.1-.013.312.157.239 1.291-.56 2.671-.958 4.056-1.253 4.932-1.026 10.084-.467 14.851.928.332.098.938.28 1.236.379 6.95 2.401 16.467 3.324 22.567-1.165.145-.107-.008-.309-.173-.229a17.62 17.62 0 01-3.98 1.393c-5.794 1.254-12.181.166-17.691-1.666a49.151 49.151 0 00-1.367-.41c-5.063-1.408-10.684-1.725-15.718-.063zm113.723 40.08c.146-.107-.008-.309-.172-.229a17.64 17.64 0 01-3.98 1.394c-5.794 1.254-12.181.165-17.692-1.666a42.703 42.703 0 00-1.367-.41c-5.062-1.409-10.684-1.727-15.717-.064-1.384.468-2.743 1.061-3.938 1.847-.152.1-.013.312.156.239 1.292-.56 2.671-.958 4.057-1.253 4.932-1.026 10.083-.467 14.85.928.333.098.939.28 1.236.378 6.951 2.402 16.467 3.325 22.567-1.164zm0-26.657c.146-.107-.008-.31-.172-.229a17.638 17.638 0 01-3.98 1.393c-5.794 1.254-12.181.166-17.692-1.666a45.416 45.416 0 00-1.367-.409c-5.062-1.409-10.684-1.727-15.717-.064-1.384.467-2.743 1.061-3.938 1.847-.152.1-.013.312.156.239 1.292-.56 2.671-.958 4.057-1.253 4.932-1.026 10.083-.468 14.85.928.333.098.939.281 1.236.378 6.951 2.402 16.467 3.325 22.567-1.164zM4.004 157.193c-1.384.468-2.743 1.062-3.938 1.847-.152.1-.014.312.156.239 1.291-.56 2.671-.958 4.057-1.253 4.93-1.026 10.083-.467 14.85.929.332.098.938.28 1.235.379 6.951 2.401 16.467 3.324 22.568-1.166.145-.106-.008-.309-.173-.228a17.622 17.622 0 01-3.98 1.393c-5.794 1.254-12.182.165-17.691-1.666a49.35 49.35 0 00-1.367-.41c-5.063-1.408-10.684-1.725-15.718-.063v-.001zm25.366 11.698c-1.383.468-2.742 1.061-3.938 1.847-.152.1-.013.312.156.239 1.292-.56 2.672-.958 4.057-1.253 4.932-1.026 10.083-.467 14.851.928.332.098.939.28 1.235.379 6.951 2.401 16.467 3.324 22.568-1.165.145-.107-.009-.309-.173-.229a17.621 17.621 0 01-3.98 1.393c-5.794 1.254-12.18.166-17.692-1.666a49.151 49.151 0 00-1.367-.41c-5.062-1.408-10.683-1.725-15.717-.063zm24.986-11.698c-1.384.468-2.743 1.062-3.938 1.847-.152.1-.013.312.156.239 1.291-.56 2.671-.958 4.057-1.253 4.932-1.026 10.083-.467 14.85.929.332.098.939.28 1.236.379 6.95 2.401 16.467 3.324 22.567-1.166.145-.106-.008-.309-.173-.228a17.625 17.625 0 01-3.98 1.393c-5.794 1.254-12.181.165-17.691-1.666a49.151 49.151 0 00-1.367-.41c-5.063-1.408-10.684-1.725-15.717-.063v-.001zm50.352 51.1c-1.384.468-2.743 1.062-3.938 1.847-.152.1-.013.312.156.239 1.291-.56 2.671-.958 4.057-1.253 4.932-1.026 10.083-.467 14.85.929.333.098.939.28 1.236.379 6.95 2.402 16.467 3.324 22.567-1.166.145-.106-.008-.309-.173-.228a17.62 17.62 0 01-3.98 1.393c-5.794 1.254-12.181.166-17.691-1.666a46.33 46.33 0 00-1.367-.41c-5.063-1.408-10.684-1.726-15.718-.064h.001zm38.756-50.353a17.589 17.589 0 01-3.98 1.393c-5.795 1.254-12.181.166-17.692-1.666a42.68 42.68 0 00-1.367-.409c-5.062-1.409-10.684-1.727-15.717-.065-1.384.468-2.743 1.061-3.938 1.848-.152.1-.013.312.156.238 1.292-.559 2.671-.957 4.057-1.253 4.932-1.025 10.083-.466 14.85.929.333.098.939.28 1.235.378 6.951 2.402 16.468 3.325 22.568-1.164.145-.108-.008-.31-.173-.229h.001zm-89.108 23.504c-1.384.468-2.743 1.061-3.938 1.847-.152.1-.013.312.156.239 1.291-.56 2.671-.958 4.057-1.253 4.932-1.026 10.083-.467 14.85.929.332.098.939.28 1.236.378 6.95 2.402 16.467 3.324 22.567-1.165.145-.107-.008-.309-.173-.228a17.674 17.674 0 01-3.98 1.393c-5.794 1.254-12.181.165-17.691-1.666a45.964 45.964 0 00-1.367-.41c-5.063-1.409-10.684-1.726-15.717-.064zM29.37 194.996c-1.383.468-2.742 1.061-3.938 1.847-.152.1-.013.312.156.239 1.292-.56 2.672-.958 4.057-1.253 4.932-1.026 10.083-.467 14.851.928.332.098.939.28 1.235.379 6.951 2.402 16.467 3.324 22.568-1.165.145-.107-.009-.31-.173-.229a17.621 17.621 0 01-3.98 1.393c-5.794 1.254-12.18.166-17.692-1.666a49.151 49.151 0 00-1.367-.41c-5.062-1.408-10.683-1.725-15.717-.063zM4.004 181.444c-1.384.468-2.743 1.061-3.938 1.847-.152.1-.014.312.156.239 1.291-.56 2.671-.958 4.057-1.253 4.93-1.026 10.083-.467 14.85.929.332.098.938.28 1.235.378 6.951 2.402 16.467 3.324 22.568-1.165.145-.107-.008-.309-.173-.228a17.671 17.671 0 01-3.98 1.393c-5.794 1.254-12.182.165-17.691-1.666a46.137 46.137 0 00-1.367-.41c-5.063-1.409-10.684-1.726-15.718-.064zm75.604 13.552c-1.383.468-2.742 1.061-3.938 1.847-.151.1-.013.312.157.239 1.291-.56 2.671-.958 4.056-1.253 4.932-1.026 10.084-.467 14.851.928.332.098.938.28 1.236.379 6.95 2.402 16.467 3.324 22.567-1.165.145-.107-.008-.31-.173-.229a17.62 17.62 0 01-3.98 1.393c-5.794 1.254-12.181.166-17.691-1.666a49.151 49.151 0 00-1.367-.41c-5.063-1.408-10.684-1.725-15.718-.063zm89.167.975c.145-.107-.008-.31-.173-.229a17.603 17.603 0 01-3.98 1.393c-5.794 1.254-12.18.166-17.691-1.666a45.416 45.416 0 00-1.367-.409c-5.062-1.409-10.684-1.727-15.717-.064-1.384.468-2.743 1.061-3.938 1.847-.152.1-.013.312.156.239 1.291-.56 2.671-.958 4.057-1.254 4.932-1.026 10.083-.467 14.85.929.333.098.939.28 1.236.379 6.95 2.401 16.467 3.324 22.567-1.165zM4.004 208.293c-1.384.468-2.743 1.062-3.938 1.847-.152.1-.014.312.156.239 1.291-.56 2.671-.958 4.057-1.253 4.93-1.026 10.083-.467 14.85.929.332.098.938.28 1.235.379 6.951 2.402 16.467 3.324 22.568-1.166.145-.106-.008-.309-.173-.228a17.622 17.622 0 01-3.98 1.393c-5.794 1.254-12.182.166-17.691-1.666a46.137 46.137 0 00-1.367-.41c-5.063-1.408-10.684-1.726-15.718-.064zm50.352 0c-1.384.468-2.743 1.062-3.938 1.847-.152.1-.013.312.156.239 1.291-.56 2.671-.958 4.057-1.253 4.932-1.026 10.083-.467 14.85.929.332.098.939.28 1.236.379 6.95 2.402 16.467 3.324 22.567-1.166.145-.106-.008-.309-.173-.228a17.625 17.625 0 01-3.98 1.393c-5.794 1.254-12.181.166-17.691-1.666a45.964 45.964 0 00-1.367-.41c-5.063-1.408-10.684-1.726-15.717-.064zM29.37 219.991c-1.383.468-2.742 1.061-3.938 1.847-.152.1-.013.312.156.239 1.292-.56 2.672-.958 4.057-1.253 4.932-1.026 10.083-.467 14.851.928.332.098.939.28 1.235.379 6.951 2.402 16.467 3.324 22.568-1.165.145-.107-.009-.309-.173-.228a17.668 17.668 0 01-3.98 1.392c-5.794 1.254-12.18.166-17.692-1.666a45.94 45.94 0 00-1.367-.409c-5.062-1.409-10.683-1.726-15.717-.064zm50.238 0c-1.383.468-2.742 1.061-3.938 1.847-.151.1-.013.312.157.239 1.291-.56 2.671-.958 4.056-1.253 4.932-1.026 10.084-.467 14.851.928.332.098.938.28 1.236.379 6.95 2.402 16.467 3.324 22.567-1.165.145-.107-.008-.309-.173-.228a17.667 17.667 0 01-3.98 1.392c-5.794 1.254-12.181.166-17.691-1.666a45.94 45.94 0 00-1.367-.409c-5.063-1.409-10.684-1.726-15.718-.064zm25.1-38.547c-1.384.468-2.743 1.061-3.938 1.847-.152.1-.013.312.156.239 1.291-.56 2.671-.958 4.057-1.253 4.932-1.026 10.083-.467 14.85.929.333.098.939.28 1.236.378 6.95 2.402 16.467 3.324 22.567-1.165.145-.107-.008-.309-.173-.228a17.67 17.67 0 01-3.98 1.393c-5.794 1.254-12.181.165-17.691-1.666a46.33 46.33 0 00-1.367-.41c-5.063-1.409-10.684-1.726-15.718-.064h.001zM29.37 272.058c-1.383.468-2.742 1.061-3.938 1.847-.152.1-.013.312.156.239 1.292-.56 2.672-.958 4.057-1.253 4.932-1.026 10.083-.467 14.851.929.332.098.939.28 1.235.378 6.951 2.402 16.467 3.324 22.568-1.165.145-.106-.009-.309-.173-.228a17.621 17.621 0 01-3.98 1.393c-5.794 1.253-12.18.165-17.692-1.666a43.165 43.165 0 00-1.367-.41c-5.062-1.409-10.683-1.726-15.717-.064zM4.004 260.361c-1.384.468-2.743 1.061-3.938 1.847-.152.1-.014.312.156.239 1.291-.56 2.671-.958 4.057-1.253 4.93-1.026 10.083-.467 14.85.928.332.098.938.28 1.235.379 6.951 2.402 16.467 3.324 22.568-1.165.145-.107-.008-.31-.173-.229a17.622 17.622 0 01-3.98 1.393c-5.794 1.254-12.182.166-17.691-1.666a49.35 49.35 0 00-1.367-.41c-5.063-1.408-10.684-1.725-15.718-.063zm0-130.982c-1.384.468-2.743 1.061-3.938 1.847-.152.1-.014.312.156.239 1.291-.56 2.671-.958 4.057-1.253 4.93-1.026 10.083-.467 14.85.929.332.098.938.28 1.235.378 6.951 2.402 16.467 3.324 22.568-1.165.145-.107-.008-.309-.173-.228a17.671 17.671 0 01-3.98 1.393c-5.794 1.253-12.182.165-17.691-1.667a46.112 46.112 0 00-1.367-.409c-5.063-1.409-10.684-1.726-15.718-.064zm166.76 132.591c6.951 2.402 16.467 3.324 22.567-1.166.145-.106-.008-.309-.173-.228a17.598 17.598 0 01-3.979 1.394c-5.795 1.253-12.181.165-17.692-1.666a41.965 41.965 0 00-1.367-.411c-5.062-1.408-10.684-1.726-15.717-.064-1.384.468-2.742 1.062-3.938 1.848-.152.1-.013.312.156.238 1.292-.559 2.671-.957 4.057-1.253 4.932-1.025 10.083-.466 14.85.929.333.098.939.281 1.236.379zM29.37 142.931c-1.383.468-2.742 1.061-3.938 1.847-.152.1-.013.312.156.239 1.292-.561 2.672-.958 4.057-1.253 4.932-1.026 10.083-.467 14.851.928.332.098.939.28 1.235.379 6.951 2.401 16.467 3.324 22.568-1.165.145-.107-.009-.31-.173-.229a17.621 17.621 0 01-3.98 1.393c-5.794 1.254-12.18.166-17.692-1.666a49.151 49.151 0 00-1.367-.41c-5.062-1.408-10.683-1.725-15.717-.063zm96.695 131.213c1.291-.56 2.671-.958 4.056-1.253 4.932-1.026 10.083-.467 14.851.928.332.098.939.281 1.235.379 6.951 2.402 16.467 3.325 22.568-1.165.145-.107-.009-.309-.172-.228a17.655 17.655 0 01-3.98 1.393c-5.795 1.253-12.182.165-17.693-1.666a42.647 42.647 0 00-1.366-.41c-5.063-1.408-10.684-1.726-15.718-.064-1.383.468-2.742 1.061-3.938 1.847-.152.1-.013.312.156.239h.001zm-46.457-2.086c-1.383.468-2.742 1.061-3.938 1.847-.151.1-.013.312.157.239 1.291-.56 2.671-.958 4.056-1.253 4.932-1.026 10.084-.467 14.851.929.332.098.938.28 1.236.378 6.95 2.402 16.467 3.324 22.567-1.165.145-.106-.008-.309-.173-.228a17.62 17.62 0 01-3.98 1.393c-5.794 1.253-12.181.165-17.691-1.666a43.165 43.165 0 00-1.367-.41c-5.063-1.409-10.684-1.726-15.718-.064zm41.461-9.557c6.95 2.402 16.467 3.324 22.568-1.165.144-.107-.009-.31-.173-.229a17.64 17.64 0 01-3.98 1.394c-5.795 1.253-12.181.165-17.692-1.666a43.488 43.488 0 00-1.367-.41c-5.063-1.409-10.684-1.727-15.718-.064-1.383.467-2.742 1.061-3.938 1.847-.152.1-.013.312.157.238 1.291-.559 2.671-.957 4.057-1.253 4.931-1.025 10.083-.466 14.85.929.333.098.939.281 1.236.379zm-66.713-2.14c-1.384.468-2.743 1.061-3.938 1.847-.152.1-.013.312.156.239 1.291-.56 2.671-.958 4.057-1.253 4.932-1.026 10.083-.467 14.85.928.332.098.939.28 1.236.379 6.95 2.402 16.467 3.324 22.567-1.165.145-.107-.008-.31-.173-.229a17.625 17.625 0 01-3.98 1.393c-5.794 1.254-12.181.166-17.691-1.666a49.151 49.151 0 00-1.367-.41c-5.063-1.408-10.684-1.725-15.717-.063zm138.975-130.112c.146-.107-.008-.31-.172-.229a17.638 17.638 0 01-3.98 1.393c-5.794 1.254-12.181.165-17.692-1.666a48.552 48.552 0 00-1.367-.41c-5.062-1.408-10.684-1.726-15.717-.063-1.384.467-2.743 1.061-3.938 1.847-.152.099-.013.311.156.239 1.292-.561 2.671-.959 4.057-1.254 4.932-1.026 10.083-.467 14.85.928.333.099.939.281 1.236.379 6.951 2.402 16.467 3.325 22.567-1.165v.001zm-138.975-.87c-1.384.468-2.743 1.061-3.938 1.847-.152.1-.013.312.156.239 1.291-.56 2.671-.958 4.057-1.253 4.932-1.026 10.083-.467 14.85.929.332.098.939.28 1.236.378 6.95 2.402 16.467 3.324 22.567-1.165.145-.107-.008-.309-.173-.228a17.674 17.674 0 01-3.98 1.393c-5.794 1.253-12.181.165-17.691-1.667a45.94 45.94 0 00-1.367-.409c-5.063-1.409-10.684-1.726-15.717-.064zm71.709 118.803c1.291-.56 2.671-.958 4.056-1.253 4.932-1.026 10.083-.467 14.851.928.332.098.939.281 1.235.379 6.951 2.402 16.467 3.325 22.568-1.165.145-.107-.009-.31-.172-.228a17.704 17.704 0 01-3.98 1.393c-5.795 1.253-12.182.165-17.693-1.666a42.647 42.647 0 00-1.366-.41c-5.063-1.408-10.684-1.727-15.718-.064-1.383.468-2.742 1.061-3.938 1.847-.152.1-.013.312.156.239h.001zm44.699-13.796c6.951 2.402 16.467 3.325 22.567-1.164.145-.107-.008-.31-.173-.229a17.595 17.595 0 01-3.979 1.393c-5.795 1.253-12.181.166-17.692-1.666a41.925 41.925 0 00-1.367-.409c-5.062-1.409-10.684-1.727-15.717-.065-1.384.468-2.742 1.061-3.938 1.848-.152.1-.013.312.156.238 1.292-.559 2.671-.957 4.057-1.253 4.932-1.025 10.083-.466 14.85.929.333.098.939.281 1.236.379v-.001zm-66.056-1.842c-1.384.468-2.743 1.061-3.938 1.847-.152.1-.013.312.156.239 1.291-.56 2.671-.958 4.057-1.253 4.932-1.026 10.083-.467 14.85.929.333.098.939.28 1.236.378 6.95 2.402 16.467 3.324 22.567-1.165.145-.107-.008-.309-.173-.228a17.67 17.67 0 01-3.98 1.393c-5.794 1.253-12.181.165-17.691-1.666a43.488 43.488 0 00-1.367-.41c-5.063-1.409-10.684-1.726-15.718-.064h.001zm-50.352 0c-1.384.468-2.743 1.061-3.938 1.847-.152.1-.013.312.156.239 1.291-.56 2.671-.958 4.057-1.253 4.932-1.026 10.083-.467 14.85.929.332.098.939.28 1.236.378 6.95 2.402 16.467 3.324 22.567-1.165.145-.107-.008-.309-.173-.228a17.674 17.674 0 01-3.98 1.393c-5.794 1.253-12.181.165-17.691-1.666a43.165 43.165 0 00-1.367-.41c-5.063-1.409-10.684-1.726-15.717-.064zm25.252 13.552c-1.383.468-2.742 1.061-3.938 1.847-.151.1-.013.312.157.239 1.291-.56 2.671-.958 4.056-1.253 4.932-1.026 10.084-.468 14.851.928.332.098.938.281 1.236.379 6.95 2.402 16.467 3.324 22.567-1.165.145-.107-.008-.309-.173-.228a17.67 17.67 0 01-3.98 1.393c-5.794 1.253-12.181.165-17.691-1.666a43.165 43.165 0 00-1.367-.41c-5.063-1.409-10.684-1.726-15.718-.064zm65.956-103.102c-5.063-1.408-10.684-1.726-15.718-.063-1.383.468-2.742 1.061-3.937 1.847-.152.1-.014.312.156.239 1.291-.56 2.671-.958 4.056-1.253 4.932-1.026 10.084-.467 14.851.928.333.098.939.281 1.235.379 6.951 2.402 16.467 3.324 22.568-1.165.145-.107-.009-.309-.173-.229a17.64 17.64 0 01-3.98 1.394c-5.794 1.253-12.181.165-17.692-1.667a45.357 45.357 0 00-1.366-.409v-.001zm-50.238 0c-5.063-1.408-10.684-1.726-15.718-.063-1.383.468-2.742 1.061-3.938 1.847-.151.1-.013.312.157.239 1.291-.56 2.671-.958 4.056-1.253 4.932-1.026 10.084-.467 14.851.928.333.098.939.281 1.235.379 6.951 2.402 16.467 3.324 22.568-1.165.145-.107-.009-.309-.173-.229a17.632 17.632 0 01-3.979 1.394c-5.795 1.253-12.182.165-17.693-1.667a45.838 45.838 0 00-1.366-.409v-.001zm48.138-12.869a17.591 17.591 0 01-3.98 1.394c-5.795 1.253-12.181.165-17.692-1.666a45.44 45.44 0 00-1.367-.41c-5.062-1.408-10.684-1.726-15.717-.064-1.384.468-2.743 1.061-3.938 1.848-.152.099-.013.311.156.238 1.292-.56 2.671-.958 4.057-1.253 4.932-1.026 10.083-.467 14.85.929.333.098.939.28 1.235.378 6.951 2.402 16.468 3.325 22.568-1.165.145-.106-.008-.309-.173-.229h.001zM29.37 246.096c-1.383.468-2.742 1.061-3.938 1.847-.152.1-.013.312.156.239 1.292-.56 2.672-.958 4.057-1.253 4.932-1.026 10.083-.468 14.851.928.332.098.939.281 1.235.379 6.951 2.402 16.467 3.324 22.568-1.165.145-.107-.009-.309-.173-.228a17.67 17.67 0 01-3.98 1.393c-5.794 1.253-12.18.165-17.692-1.666a43.165 43.165 0 00-1.367-.41c-5.062-1.409-10.683-1.726-15.717-.064zM50.574 3.507c1.291-.56 2.671-.958 4.056-1.253 4.932-1.025 10.084-.466 14.851.929.333.098.939.28 1.236.378 6.95 2.402 16.467 3.325 22.567-1.165.145-.106-.009-.31-.173-.228a17.607 17.607 0 01-3.98 1.393c-5.794 1.253-12.18.166-17.692-1.666a44.13 44.13 0 00-1.366-.41C65.01.077 59.389-.241 54.355 1.421c-1.383.468-2.742 1.061-3.938 1.847-.152.1-.013.313.157.24zm100.047-.297c1.292-.56 2.672-.958 4.057-1.253 4.932-1.026 10.083-.467 14.85.929.333.097.939.28 1.236.378 6.95 2.402 16.467 3.325 22.567-1.165.145-.107-.008-.31-.173-.229a17.603 17.603 0 01-3.979 1.394c-5.795 1.253-12.181.165-17.692-1.666a43.819 43.819 0 00-1.367-.41c-5.063-1.408-10.684-1.726-15.717-.064-1.384.468-2.743 1.06-3.938 1.847-.152.1-.013.312.156.239zM.222 3.507c1.291-.56 2.671-.958 4.056-1.253 4.932-1.025 10.084-.466 14.85.929.333.098.94.28 1.236.378 6.951 2.402 16.467 3.325 22.568-1.165.145-.106-.009-.31-.172-.228a17.621 17.621 0 01-3.98 1.393c-5.795 1.253-12.182.166-17.692-1.666a43.732 43.732 0 00-1.367-.41C14.658.077 9.037-.241 4.003 1.421 2.62 1.89 1.261 2.482.065 3.268c-.152.1-.013.313.156.24zm29.148 9.612c-1.383.467-2.742 1.06-3.938 1.847-.152.1-.013.312.156.239 1.292-.56 2.672-.959 4.057-1.254 4.932-1.026 10.083-.467 14.851.93.332.097.939.28 1.235.378 6.951 2.401 16.467 3.324 22.568-1.165.145-.107-.009-.31-.173-.229a17.636 17.636 0 01-3.98 1.393c-5.794 1.254-12.18.166-17.692-1.666a45.959 45.959 0 00-1.367-.41c-5.062-1.408-10.683-1.726-15.717-.063zm100.477 0c-1.384.467-2.743 1.06-3.939 1.847-.151.1-.012.312.157.239 1.291-.56 2.671-.959 4.057-1.254 4.931-1.026 10.083-.467 14.85.93.332.097.939.28 1.235.378 6.951 2.401 16.468 3.324 22.568-1.165.145-.107-.008-.31-.173-.229a17.635 17.635 0 01-3.98 1.393c-5.794 1.254-12.181.166-17.691-1.666a46.325 46.325 0 00-1.367-.41c-5.063-1.408-10.684-1.726-15.717-.063zm-50.239 0c-1.383.467-2.742 1.06-3.938 1.847-.151.1-.013.312.157.239 1.291-.56 2.671-.959 4.056-1.254 4.932-1.026 10.084-.467 14.851.93.332.097.938.28 1.236.378 6.95 2.401 16.467 3.324 22.567-1.165.145-.107-.008-.31-.173-.229a17.635 17.635 0 01-3.98 1.393c-5.794 1.254-12.181.166-17.691-1.666a45.959 45.959 0 00-1.367-.41c-5.063-1.408-10.684-1.726-15.718-.063zm21.318-9.612c1.291-.56 2.671-.958 4.057-1.253 4.931-1.025 10.083-.466 14.85.929.333.098.939.28 1.236.378 6.95 2.402 16.467 3.325 22.567-1.165.145-.106-.008-.31-.173-.228a17.62 17.62 0 01-3.979 1.393c-5.795 1.253-12.182.166-17.692-1.666a44.647 44.647 0 00-1.367-.41c-5.063-1.408-10.684-1.726-15.718-.064-1.383.468-2.742 1.061-3.938 1.847-.152.1-.013.313.157.24zM70.717 338.391c6.95 2.402 16.467 3.325 22.567-1.164.145-.108-.008-.311-.173-.229a17.616 17.616 0 01-3.98 1.393c-5.794 1.253-12.18.165-17.691-1.666a45.422 45.422 0 00-1.367-.41c-5.063-1.408-10.684-1.726-15.717-.064-1.384.468-2.742 1.061-3.938 1.848-.152.099-.014.311.156.238 1.291-.56 2.671-.958 4.057-1.253 4.932-1.026 10.083-.467 14.85.929.333.097.94.28 1.236.378zm-66.713-2.14c-1.384.468-2.743 1.061-3.938 1.847-.152.1-.014.312.156.239 1.291-.56 2.671-.958 4.057-1.253 4.93-1.026 10.083-.467 14.85.929.332.097.938.28 1.235.378 6.951 2.402 16.467 3.324 22.568-1.165.145-.107-.008-.309-.173-.228a17.72 17.72 0 01-3.98 1.393c-5.794 1.253-12.182.165-17.691-1.667a46.112 46.112 0 00-1.367-.409c-5.063-1.409-10.684-1.726-15.718-.064zm166.76 2.034c6.951 2.402 16.467 3.325 22.567-1.165.145-.106-.008-.309-.173-.228a17.595 17.595 0 01-3.979 1.393c-5.795 1.253-12.181.166-17.692-1.666a44.583 44.583 0 00-1.367-.41c-5.062-1.408-10.684-1.726-15.717-.064-1.384.468-2.742 1.061-3.938 1.848-.152.1-.013.312.156.238 1.292-.559 2.671-.957 4.057-1.253 4.932-1.025 10.083-.466 14.85.929.333.098.939.28 1.236.378zm-49.695.106c6.95 2.402 16.467 3.325 22.568-1.164.144-.108-.009-.311-.173-.229a17.638 17.638 0 01-3.98 1.393c-5.795 1.253-12.181.165-17.692-1.666a46.33 46.33 0 00-1.367-.41c-5.063-1.408-10.684-1.726-15.718-.064-1.383.468-2.742 1.061-3.938 1.848-.152.099-.013.311.157.238 1.291-.56 2.671-.958 4.057-1.253 4.931-1.026 10.083-.467 14.85.929.333.097.939.28 1.236.378zm72.09-284.687a17.62 17.62 0 01-3.98 1.393c-5.794 1.254-12.182.166-17.692-1.665a44.241 44.241 0 00-1.366-.41c-5.063-1.409-10.684-1.727-15.718-.064-1.383.467-2.742 1.06-3.939 1.847-.151.1-.013.312.157.238 1.292-.56 2.672-.957 4.057-1.253 4.931-1.025 10.083-.466 14.85.929.332.098.939.28 1.236.378 6.95 2.403 16.467 3.325 22.567-1.164.146-.107-.008-.31-.172-.229zM45.088 65.25c-5.063-1.408-10.684-1.727-15.718-.064-1.383.468-2.743 1.061-3.938 1.847-.152.1-.013.312.156.24 1.292-.561 2.672-.959 4.057-1.254 4.932-1.026 10.083-.467 14.85.928.333.099.94.281 1.236.379 6.95 2.402 16.467 3.325 22.567-1.165.145-.106-.008-.309-.173-.228a17.613 17.613 0 01-3.979 1.393c-5.795 1.254-12.181.165-17.692-1.666a46.557 46.557 0 00-1.367-.41zM42.76 54.235a17.611 17.611 0 01-3.98 1.394c-5.795 1.253-12.182.165-17.692-1.666a43.963 43.963 0 00-1.367-.41c-5.062-1.408-10.684-1.726-15.717-.064-1.384.468-2.743 1.06-3.939 1.848-.151.1-.013.311.157.238 1.291-.56 2.672-.958 4.057-1.254 4.931-1.025 10.083-.466 14.85.93.332.097.939.28 1.235.378 6.951 2.402 16.468 3.325 22.568-1.165.146-.107-.008-.31-.172-.229zm50.352 0a17.611 17.611 0 01-3.98 1.394c-5.795 1.253-12.182.165-17.692-1.666a44.045 44.045 0 00-1.367-.41c-5.062-1.408-10.684-1.726-15.717-.064-1.384.468-2.743 1.06-3.939 1.848-.151.1-.013.311.157.238 1.291-.56 2.671-.958 4.057-1.254 4.93-1.025 10.083-.466 14.85.93.332.097.939.28 1.236.378 6.95 2.402 16.467 3.325 22.567-1.165.145-.107-.008-.31-.173-.229zm50.352 0a17.614 17.614 0 01-3.98 1.394c-5.795 1.253-12.181.165-17.692-1.666a43.484 43.484 0 00-1.367-.41c-5.062-1.408-10.684-1.726-15.717-.064-1.384.468-2.743 1.06-3.938 1.848-.152.1-.013.311.156.238 1.292-.56 2.671-.958 4.057-1.254 4.932-1.025 10.083-.466 14.85.93.333.097.939.28 1.235.378 6.951 2.402 16.468 3.325 22.568-1.165.145-.107-.008-.31-.173-.229h.001zM95.326 65.25c-5.063-1.408-10.684-1.727-15.718-.064-1.383.468-2.742 1.061-3.938 1.847-.151.1-.013.312.157.24 1.291-.561 2.671-.959 4.056-1.254 4.932-1.026 10.084-.467 14.851.928.333.099.939.281 1.235.379 6.951 2.402 16.467 3.325 22.568-1.165.145-.106-.009-.309-.173-.228a17.626 17.626 0 01-3.979 1.393c-5.795 1.254-12.182.165-17.693-1.666a46.46 46.46 0 00-1.366-.41zm50.238 0c-5.063-1.408-10.684-1.727-15.718-.064-1.383.468-2.742 1.061-3.937 1.847-.152.1-.014.312.156.24 1.291-.561 2.671-.959 4.056-1.254 4.932-1.026 10.084-.467 14.851.928.333.099.939.281 1.235.379 6.951 2.402 16.467 3.325 22.568-1.165.145-.106-.009-.309-.173-.228a17.634 17.634 0 01-3.98 1.393c-5.794 1.254-12.181.165-17.692-1.666a45.965 45.965 0 00-1.366-.41zM42.76 26.419a17.616 17.616 0 01-3.98 1.393c-5.795 1.253-12.182.165-17.692-1.666a44.235 44.235 0 00-1.367-.41c-5.062-1.408-10.684-1.726-15.717-.064-1.384.468-2.743 1.06-3.939 1.848-.151.1-.013.311.157.238 1.291-.56 2.672-.958 4.057-1.253 4.931-1.026 10.083-.467 14.85.928.332.098.939.281 1.235.379 6.951 2.402 16.468 3.325 22.568-1.165.146-.107-.008-.31-.172-.229zm2.328 12.869c-5.063-1.409-10.684-1.727-15.718-.064-1.383.468-2.743 1.061-3.938 1.847-.152.1-.013.312.156.239 1.292-.56 2.672-.958 4.057-1.254 4.932-1.026 10.083-.467 14.85.929.333.098.94.28 1.236.378 6.95 2.402 16.467 3.325 22.567-1.164.145-.107-.008-.31-.173-.23a17.603 17.603 0 01-3.979 1.394c-5.795 1.254-12.181.165-17.692-1.666a45.948 45.948 0 00-1.367-.41zm50.238 0c-5.063-1.409-10.684-1.727-15.718-.064-1.383.468-2.742 1.061-3.938 1.847-.151.1-.013.312.157.239 1.291-.56 2.671-.958 4.056-1.254 4.932-1.026 10.084-.467 14.851.929.333.098.939.28 1.235.378 6.951 2.402 16.467 3.325 22.568-1.164.145-.107-.009-.31-.173-.23a17.616 17.616 0 01-3.979 1.394c-5.795 1.254-12.182.165-17.693-1.666a45.853 45.853 0 00-1.366-.41zm-2.214-12.869a17.616 17.616 0 01-3.98 1.393c-5.795 1.253-12.182.165-17.692-1.666a44.318 44.318 0 00-1.367-.41c-5.062-1.408-10.684-1.726-15.717-.064-1.384.468-2.743 1.06-3.939 1.848-.151.1-.013.311.157.238 1.291-.56 2.671-.958 4.057-1.253 4.93-1.026 10.083-.467 14.85.928.332.098.939.281 1.236.379 6.95 2.402 16.467 3.325 22.567-1.165.145-.107-.008-.31-.173-.229zm50.352 0a17.62 17.62 0 01-3.98 1.393c-5.795 1.253-12.181.165-17.692-1.666a43.75 43.75 0 00-1.367-.41c-5.062-1.408-10.684-1.726-15.717-.064-1.384.468-2.743 1.06-3.938 1.848-.152.1-.013.311.156.238 1.292-.56 2.671-.958 4.057-1.253 4.932-1.026 10.083-.467 14.85.928.333.098.939.281 1.235.379 6.951 2.402 16.468 3.325 22.568-1.165.145-.107-.008-.31-.173-.229h.001zm49.695-.299a17.614 17.614 0 01-3.98 1.394c-5.794 1.253-12.182.166-17.692-1.666a44.241 44.241 0 00-1.366-.41c-5.063-1.408-10.684-1.726-15.718-.063-1.383.467-2.742 1.06-3.939 1.847-.151.1-.013.312.157.238 1.292-.56 2.672-.957 4.057-1.253 4.931-1.025 10.083-.466 14.85.929.332.098.939.28 1.236.378 6.95 2.402 16.467 3.325 22.567-1.164.146-.108-.008-.31-.172-.23zm-47.595 13.168c-5.063-1.409-10.684-1.727-15.718-.064-1.383.468-2.742 1.061-3.937 1.847-.152.1-.014.312.156.239 1.291-.56 2.671-.958 4.056-1.254 4.932-1.026 10.084-.467 14.851.929.333.098.939.28 1.235.378 6.951 2.402 16.467 3.325 22.568-1.164.145-.107-.009-.31-.173-.23a17.624 17.624 0 01-3.98 1.394c-5.794 1.254-12.181.165-17.692-1.666a45.37 45.37 0 00-1.366-.41z" fill="#1A96D5"/></svg>