<svg width="345" height="30" fill="none" xmlns="http://www.w3.org/2000/svg"><path d="M204.755 12.821c-1.384.468-2.743 1.061-3.939 1.847-.151.1-.012.312.157.24 1.292-.56 2.671-.959 4.057-1.254 4.931-1.026 10.083-.467 14.85.929.332.098.939.28 1.235.379 6.952 2.4 16.468 3.324 22.568-1.166.145-.106-.008-.309-.173-.228a17.618 17.618 0 01-3.98 1.393c-5.794 1.254-12.181.165-17.691-1.666a46.322 46.322 0 00-1.367-.41c-5.062-1.408-10.684-1.726-15.717-.064zm71.441-9.538c1.292-.56 2.672-.958 4.058-1.253 4.931-1.025 10.082-.467 14.85.929.332.098.939.28 1.235.378 6.951 2.402 16.467 3.325 22.567-1.165.146-.107-.008-.31-.172-.228a17.604 17.604 0 01-3.98 1.393c-5.795 1.253-12.181.166-17.692-1.666a43.02 43.02 0 00-1.367-.41c-5.062-1.408-10.684-1.726-15.717-.064-1.384.468-2.742 1.061-3.938 1.847-.152.1-.013.313.156.24zM4.003 13.045c-1.383.468-2.742 1.062-3.938 1.847-.152.1-.013.312.156.24 1.292-.56 2.672-.959 4.057-1.254 4.932-1.026 10.083-.467 14.85.929.333.098.939.28 1.235.379 6.952 2.401 16.468 3.323 22.569-1.166.145-.106-.009-.309-.173-.228a17.637 17.637 0 01-3.98 1.393c-5.794 1.254-12.182.165-17.692-1.666a45.959 45.959 0 00-1.366-.41c-5.063-1.408-10.684-1.726-15.718-.063zm250.99-.15c-1.384.468-2.743 1.06-3.938 1.847-.152.1-.013.312.156.239 1.291-.56 2.671-.958 4.057-1.253 4.931-1.026 10.083-.467 14.85.928.332.098.938.28 1.236.379 6.95 2.401 16.467 3.324 22.567-1.165.145-.107-.008-.31-.173-.229a17.618 17.618 0 01-3.98 1.393c-5.794 1.254-12.181.166-17.691-1.666a46.325 46.325 0 00-1.367-.41c-5.063-1.408-10.684-1.726-15.718-.063h.001zm50.238 0c-1.383.468-2.742 1.06-3.938 1.847-.152.1-.013.312.156.239 1.292-.56 2.672-.958 4.057-1.253 4.931-1.026 10.083-.467 14.851.928.332.098.938.28 1.234.379 6.952 2.401 16.468 3.324 22.569-1.165.145-.107-.009-.31-.173-.229a17.652 17.652 0 01-3.98 1.393c-5.794 1.254-12.182.166-17.692-1.666a45.435 45.435 0 00-1.367-.41c-5.062-1.408-10.684-1.726-15.717-.063zm-79.387-9.612c1.292-.56 2.672-.958 4.057-1.253 4.932-1.025 10.083-.467 14.851.929.332.098.939.28 1.235.378 6.95 2.402 16.467 3.325 22.567-1.165.145-.107-.008-.31-.172-.228a17.604 17.604 0 01-3.98 1.393c-5.795 1.253-12.181.166-17.692-1.666a43.819 43.819 0 00-1.367-.41c-5.062-1.408-10.684-1.726-15.717-.064-1.384.468-2.743 1.061-3.938 1.847-.152.1-.013.313.156.24zm-150.399.224c1.291-.56 2.671-.958 4.057-1.253 4.932-1.025 10.083-.466 14.85.929.333.098.94.28 1.236.379 6.95 2.402 16.467 3.324 22.567-1.166.145-.106-.008-.309-.173-.228a17.603 17.603 0 01-3.979 1.394c-5.795 1.253-12.182.165-17.692-1.666a44.24 44.24 0 00-1.367-.41C89.88.076 84.26-.242 79.226 1.421c-1.383.467-2.742 1.06-3.938 1.846-.152.1-.013.313.157.24zm100.047-.297c1.292-.56 2.672-.958 4.057-1.253 4.932-1.026 10.083-.467 14.85.929.333.097.939.28 1.236.378 6.951 2.402 16.467 3.325 22.567-1.165.145-.107-.008-.31-.173-.229a17.586 17.586 0 01-3.979 1.394c-5.795 1.253-12.181.165-17.692-1.666a43.819 43.819 0 00-1.367-.41c-5.062-1.408-10.684-1.726-15.717-.064-1.384.468-2.743 1.06-3.938 1.847-.152.1-.013.312.156.239zm-150.399.297c1.291-.56 2.671-.958 4.056-1.253C34.081 1.23 39.233 1.788 44 3.183c.333.098.939.28 1.235.379 6.951 2.402 16.468 3.324 22.568-1.166.145-.106-.009-.309-.172-.228a17.622 17.622 0 01-3.98 1.394c-5.795 1.253-12.182.165-17.692-1.666a43.759 43.759 0 00-1.367-.41C39.529.076 33.908-.242 28.874 1.421c-1.383.467-2.741 1.06-3.938 1.846-.152.1-.013.313.157.24zm29.148 9.612c-1.383.467-2.742 1.06-3.938 1.847-.152.1-.013.312.157.239 1.291-.56 2.671-.959 4.056-1.254 4.933-1.026 10.084-.467 14.851.93.332.097.939.28 1.235.378 6.951 2.401 16.468 3.324 22.568-1.165.145-.107-.008-.31-.173-.229a17.636 17.636 0 01-3.98 1.393c-5.794 1.254-12.18.166-17.691-1.666a45.959 45.959 0 00-1.367-.41c-5.063-1.408-10.684-1.726-15.718-.063zm100.477 0c-1.384.467-2.743 1.06-3.939 1.847-.151.1-.012.312.157.239 1.291-.56 2.672-.959 4.057-1.254 4.931-1.026 10.083-.467 14.851.93.331.097.938.28 1.234.378 6.952 2.401 16.468 3.324 22.568-1.165.145-.107-.008-.31-.173-.229a17.635 17.635 0 01-3.98 1.393c-5.794 1.254-12.181.166-17.691-1.666a46.325 46.325 0 00-1.367-.41c-5.062-1.408-10.684-1.726-15.717-.063zm-50.239 0c-1.383.467-2.742 1.06-3.937 1.847-.152.1-.013.312.156.239 1.291-.56 2.671-.959 4.057-1.254 4.931-1.026 10.083-.467 14.85.93.332.097.938.28 1.236.378 6.95 2.401 16.467 3.324 22.567-1.165.145-.107-.008-.31-.173-.229a17.635 17.635 0 01-3.98 1.393c-5.794 1.254-12.181.166-17.691-1.666a46.325 46.325 0 00-1.367-.41c-5.063-1.408-10.684-1.726-15.718-.063zm21.318-9.612c1.292-.56 2.671-.958 4.057-1.253 4.932-1.025 10.083-.466 14.85.929.333.098.939.28 1.236.379 6.951 2.402 16.467 3.324 22.567-1.166.145-.106-.008-.309-.173-.228a17.586 17.586 0 01-3.979 1.394c-5.795 1.253-12.181.165-17.692-1.666a43.047 43.047 0 00-1.367-.41c-5.062-1.409-10.684-1.727-15.717-.064-1.384.467-2.742 1.06-3.938 1.846-.152.1-.013.313.156.24zM67.63 26.419a17.615 17.615 0 01-3.98 1.393c-5.794 1.253-12.18.165-17.69-1.666a44.235 44.235 0 00-1.367-.41c-5.063-1.408-10.684-1.726-15.718-.064-1.384.468-2.742 1.06-3.939 1.848-.15.1-.013.311.157.238 1.292-.56 2.672-.958 4.057-1.253 4.931-1.026 10.083-.467 14.85.928.333.098.939.281 1.235.379 6.951 2.402 16.468 3.325 22.569-1.165.145-.107-.009-.31-.173-.229zm50.353 0a17.636 17.636 0 01-3.98 1.393c-5.795 1.253-12.182.165-17.692-1.666a44.318 44.318 0 00-1.367-.41c-5.062-1.408-10.684-1.726-15.717-.064-1.384.468-2.743 1.06-3.939 1.848-.151.1-.013.311.157.238 1.292-.56 2.672-.958 4.057-1.253 4.931-1.026 10.083-.467 14.85.928.332.098.939.281 1.236.379 6.951 2.402 16.467 3.325 22.567-1.165.145-.107-.008-.31-.173-.229h.001zm50.352 0a17.62 17.62 0 01-3.98 1.393c-5.794 1.253-12.181.165-17.692-1.666a43.75 43.75 0 00-1.367-.41c-5.062-1.408-10.683-1.726-15.717-.064-1.384.468-2.743 1.06-3.938 1.848-.152.1-.013.311.156.238 1.292-.56 2.671-.958 4.057-1.253 4.932-1.026 10.083-.467 14.85.928.333.098.939.281 1.235.379 6.952 2.402 16.468 3.325 22.568-1.165.145-.107-.008-.31-.173-.229h.001zm150.572.004c.145-.106-.008-.31-.173-.229a17.61 17.61 0 01-3.98 1.394c-5.794 1.253-12.181.165-17.692-1.666a46.265 46.265 0 00-1.366-.41c-5.063-1.409-10.684-1.727-15.718-.064-1.383.468-2.742 1.061-3.938 1.847-.152.1-.013.312.156.24 1.292-.561 2.672-.959 4.057-1.254 4.932-1.026 10.083-.467 14.851.928.332.099.939.281 1.234.38 6.952 2.4 16.468 3.323 22.569-1.166zm-100.877-.302a17.614 17.614 0 01-3.98 1.394c-5.794 1.253-12.182.165-17.691-1.666a44.299 44.299 0 00-1.367-.41c-5.063-1.409-10.684-1.727-15.718-.064-1.383.467-2.742 1.06-3.938 1.847-.152.1-.014.312.157.238 1.291-.56 2.671-.957 4.056-1.253 4.931-1.025 10.083-.466 14.85.93.333.097.939.28 1.236.378 6.95 2.402 16.467 3.324 22.567-1.165.146-.107-.008-.31-.172-.229zm50.352.073a17.607 17.607 0 01-3.98 1.394c-5.795 1.253-12.181.165-17.691-1.666a42.755 42.755 0 00-1.368-.41c-5.061-1.408-10.683-1.726-15.716-.064-1.384.468-2.743 1.06-3.939 1.847-.151.1-.013.312.156.238 1.292-.559 2.672-.957 4.058-1.253 4.931-1.025 10.083-.466 14.85.93.332.097.939.28 1.235.378 6.951 2.402 16.468 3.324 22.568-1.165.145-.106-.009-.31-.173-.229z" fill="#1A96D5"/></svg>