<svg width="50" height="50" fill="none" xmlns="http://www.w3.org/2000/svg"><rect width="50" height="50" rx="25" fill="#fff"/><path d="M12.5 36.575l1.794-6.67a12.333 12.333 0 01-1.295-8.539 12.35 12.35 0 014.625-7.298 12.387 12.387 0 0116.175 1.046 12.337 12.337 0 011.257 16.134 12.374 12.374 0 01-7.25 4.71 12.39 12.39 0 01-8.57-1.181L12.5 36.574zm7.062-4.294l.416.247a10.013 10.013 0 0012.111-1.471 9.976 9.976 0 001.673-12.065 9.994 9.994 0 00-4.827-4.262 10.016 10.016 0 00-11.79 3.132 9.972 9.972 0 00-2.067 6.093 9.858 9.858 0 001.461 5.175l.262.43-1.003 3.722 3.764-1.001z" fill="#111"/><path fill-rule="evenodd" clip-rule="evenodd" d="M29.674 25.667a2.064 2.064 0 00-1.765-.402c-.46.19-.756.91-1.052 1.27a.438.438 0 01-.565.126 7.997 7.997 0 01-3.997-3.42.479.479 0 01.063-.662c.331-.327.574-.732.706-1.177a2.56 2.56 0 00-.324-1.41 3.299 3.299 0 00-1.024-1.544 1.414 1.414 0 00-1.519.232 3.116 3.116 0 00-1.08 2.468 3.2 3.2 0 00.099.776c.164.609.416 1.19.748 1.727.24.41.502.808.784 1.191a12.033 12.033 0 003.397 3.145 10.24 10.24 0 002.118 1.008 4.691 4.691 0 002.465.387 2.962 2.962 0 002.231-1.656 1.4 1.4 0 00.106-.846c-.127-.585-.91-.93-1.39-1.213z" fill="#111"/></svg>