<svg width="126" height="30" fill="none" xmlns="http://www.w3.org/2000/svg"><g clip-path="url(#clip0_85_1210)" fill="#fff"><path d="M22.532 21.643c-.078-.033.255-.801.454-1.782.2-.991.033-1.854-.02-2.489a7.724 7.724 0 00-.478-1.944 10.278 10.278 0 00-.269-.61c-.215-.462-.677-1.511-1.491-2.48-.82-.976-1.813-1.764-2.942-2.408a13.028 13.028 0 00-3.014-1.268c-1.807-.495-3.621-.964-5.427-1.46-1.19-.326-2.352-.72-3.45-1.274-1.534-.774-2.384-1.97-2.63-3.567-.133-.86-.12-1.352-.005-2.213.005-.037.013-.074.021-.11.002-.01.012-.018.025-.038.033.04.065.074.091.112.477.678 1.167.973 1.898 1.373 1.847 1.01 3.883 1.3 3.888 1.3 4.885 1.107 4.148.948 4.613 1.048 3.202.69 4.3.915 5.672 1.69a10.07 10.07 0 011.831 1.326 11.357 11.357 0 012.91 4.1s.268.661.427 1.406c.212.993.264 2.45.041 3.908-.12.786-.58 2.22-.804 2.778-.185.459-.366.904-.643 1.452-.065.13-.602 1.19-.698 1.15z"/><path d="M9.408 28.087c-1.668 0-2.99.003-4.759.003-.001 0-.003-.001-.003-.003V5.616c0-.003.003-.004.005-.002a9.054 9.054 0 001.875 1.258 19.922 19.922 0 002.88 1.182s-.008.514.003.7c.007.128 0 .292 0 .42V27.65l.002.435c0 .002-.001.002-.003.002zm44.626-1.684c-1.872.365-3.76.472-5.66.38-.427-.02-.854-.056-1.281-.087-.064-.004-.128-.013-.194-.022a.098.098 0 01-.084-.097v-8.954c0-.054.043-.099.096-.099.038 0 2.495.295 3.61.212 1.488-.11 2.097-.19 3.582-.547 0 0 .122.03.122.094v.08c0 2.896-.001 5.896.004 8.79 0 .158-.036.219-.195.25zm6.824-2.37c-1.34.589-1.79.747-1.856.727l-.118-.036a.102.102 0 01-.016-.053V4.773c-.03-.002-.043-.005-.053-.003-1.456.286-2.912.576-4.37.854-.154.03-.189.087-.189.236.005 2 .003 4.422.003 6.423 0 .046.015.1-.004.138-.024.05-.07.122-.113.126-.625.054-1.25.118-1.878.142-1.314.05-1.452.043-2.76-.106-.498-.056-1.917-.26-2.679-.687-.042-.024-.084-.048-.084-.097V4.992c0-.29 0-.29-.273-.237l-3.496.682c-.258.05-.514.104-.774.157a.098.098 0 00-.077.096v.135c.003.65.008 1.302.01 1.952v.474c.036.05 3.215 4.417.875 10.688-.173.52-.376 1.03-.608 1.53-.175.377-.268.79-.27 1.207a342.63 342.63 0 01-.017 3.206c-.004.3-.002.455-.001.478 0 .002-.001.003-.003.003a23.565 23.565 0 01-.215-.042c-.914-.21-1.986-.725-2.9-.946a.055.055 0 00-.04.006c-1.257.723-3.58 1.804-6.575 1.775a12.658 12.658 0 01-3.295-.483c-2.803-.792-4.727-2.365-5.796-3.42a.054.054 0 00-.085.011 13.26 13.26 0 01-3.662 4.081c-.048.035-.013.109.044.096a14.925 14.925 0 013.323-.332c.254.004.53.02 1.952.164 1.11.114 2.58.272 3.209.35 2.538.32 5.235 1.087 8.928 1.895 4.264.933 6.707 1.231 7.767 1.338l.312.03c1.128.103 3.507.245 5.946-.131 4.211-.649 7.33-2.645 7.808-2.958a19.217 19.217 0 004.286-3.836c.038-.046-.015-.11-.068-.082l-.593.312c-1.055.556-1.581.836-1.595.842z"/><path d="M42.914 12.371c-.636-2.762-2.153-4.885-4.65-6.303-1.815-1.03-3.779-1.463-5.93-1.454a12.686 12.686 0 00-2.863.313 8.571 8.571 0 00-2.027.716c-1.297.663-2.113 1.493-2.618 2.022-.458.48-.8.924-1.035 1.255a.064.064 0 000 .073c.268.384.492.913.79 1.577.154.345.608 1.417.779 2.912.034.305.25 1.38.017 2.97-.172 1.176-.588 3.028-1.723 5.16a.066.066 0 00.006.07c.218.285.44.565.693.814a11.228 11.228 0 001.704 1.362 8.51 8.51 0 002.612 1.006c.571.119 2.25.41 4.158-.14 3.188-.921 4.751-3.542 5.099-4.16.26-.533.547-1.193.722-2.018a8.966 8.966 0 00.002-3.578c-.003-.019-.031-.016-.03.003.01.655-.077 1.96-.896 3.297-.216.353-1.195 1.987-3.27 2.608-1.53.458-3.055.473-4.524-.22-1.81-.856-2.911-2.29-3.317-4.225-.35-1.671-.131-3.28.743-4.763.89-1.51 2.25-2.37 3.986-2.635a6.821 6.821 0 012.758.157c.366.09 2.578.67 4.1 2.606.413.524.664 1.006.748 1.173a7.02 7.02 0 01.67 2.2 8.476 8.476 0 01-.167 3.293 7.84 7.84 0 01-1.114 2.664c-1.886 2.847-4.839 3.92-6.267 4.306-.075.02-.06.129.018.13 1.272.016 2.526-.176 3.762-.52 5.255-1.46 7.202-5.985 7.369-9.287a12.261 12.261 0 00-.305-3.384zm-20.898 4.02c-.197-.642-.46-1.26-.7-1.886-.07-.184-.163-.359-.263-.571-.001-.003-.005-.002-.005 0a9.67 9.67 0 01-.126 1.788c-.082.499-.37 2.156-1.39 3.629a11.798 11.798 0 01-4.185 3.168 11.934 11.934 0 01-5.429 1.035.003.003 0 00-.003.003v4.484c0 .002.001.003.002.003a17.439 17.439 0 004.117-.406l.215-.05c.747-.178 2.139-.521 3.663-1.372.423-.236 1.538-.867 2.47-1.847.21-.222.624-.665 1.025-1.346.127-.215.25-.454.366-.718.497-1.14.558-2.127.594-2.805.013-.252.102-1.626-.351-3.109zM4.16 23.794a.003.003 0 00-.004-.003 6.852 6.852 0 00-1.883 1.114 6.644 6.644 0 00-1.849 2.462A6.274 6.274 0 000 28.87c0 .003.002.005.004.003.112-.06 2.039-1.084 4.155-.8.002 0 .003-.002.003-.004l-.002-4.274zM71.642 9.073c-.064.543-.267.962-.607 1.257-.341.295-.794.442-1.359.442-.612 0-1.103-.217-1.472-.652-.369-.435-.553-1.016-.553-1.745v-.493c0-.478.086-.897.258-1.259.172-.362.415-.64.731-.834.316-.194.681-.29 1.097-.29.55 0 .992.152 1.324.456.332.304.526.726.58 1.264h-.687c-.059-.41-.188-.707-.386-.891-.198-.184-.475-.276-.831-.276-.437 0-.78.16-1.027.48-.248.32-.372.775-.372 1.365v.498c0 .557.117 1 .352 1.33.235.33.564.494.986.494.38 0 .671-.085.874-.256.203-.17.338-.467.405-.89h.687zm2.713-.525l1.192-2.979h.794l-1.833 4.276c-.123.273-.239.466-.346.58a1.08 1.08 0 01-.375.261 1.41 1.41 0 01-.54.09c-.187 0-.307-.01-.36-.032l.022-.536.324.015c.25 0 .435-.119.556-.356l.089-.184.135-.314-1.766-3.8h.766l1.342 2.98zm3.289 1.601h2.528V6.123h-1.755l-.075 1.51c-.03.59-.11 1.094-.237 1.51-.127.416-.28.752-.46 1.006zm3.884 1.812h-.68v-1.259h-3.72v1.262h-.683l-.004-1.815h.424c.223-.25.4-.584.532-1.003.132-.42.214-.88.247-1.38l.114-2.197h3.101v4.58h.677l-.008 1.811zM85.57 7.97c0-.609-.124-1.076-.37-1.401-.248-.326-.593-.488-1.037-.488-.432 0-.772.162-1.02.488-.248.325-.376.777-.383 1.355v.377c0 .59.125 1.054.376 1.391.25.338.595.506 1.034.506.442 0 .784-.16 1.025-.478.243-.318.368-.775.374-1.37v-.38zm.68.331c0 .503-.086.942-.257 1.317-.17.375-.413.66-.726.858a2.015 2.015 0 01-1.097.297c-.408 0-.77-.1-1.085-.298a1.972 1.972 0 01-.736-.85c-.174-.368-.264-.794-.269-1.278v-.37c0-.493.087-.93.26-1.308.173-.378.418-.668.736-.869.316-.2.679-.301 1.087-.301.416 0 .782.1 1.099.298.317.198.56.486.731.863.171.378.257.817.257 1.317V8.3zm2.638-.765L90.13 5.57h.805l-1.638 2.546 1.677 2.587h-.812L88.888 8.7l-1.282 2.002h-.808l1.68-2.587-1.641-2.546h.8l1.25 1.967zm6.098.434c0-.609-.123-1.076-.37-1.401-.247-.326-.592-.488-1.036-.488-.432 0-.772.162-1.02.488-.248.325-.376.777-.383 1.355v.377c0 .59.125 1.054.376 1.391.25.338.595.506 1.034.506.441 0 .783-.16 1.025-.478.243-.318.367-.775.374-1.37v-.38zm.68.331c0 .503-.085.942-.256 1.317-.17.375-.413.66-.726.858a2.014 2.014 0 01-1.097.297c-.408 0-.77-.1-1.086-.298a1.973 1.973 0 01-.735-.85c-.174-.368-.264-.794-.269-1.278v-.37c0-.493.087-.93.26-1.308.173-.378.418-.668.736-.869.316-.2.679-.301 1.087-.301.415 0 .782.1 1.098.298.317.198.561.486.732.863.17.378.256.817.256 1.317V8.3zm1.688 1.848h2.528V6.123h-1.756l-.074 1.51c-.031.59-.11 1.094-.237 1.51-.127.416-.28.752-.461 1.006zm3.884 1.812h-.68v-1.259h-3.72v1.262h-.684l-.004-1.815h.424c.223-.25.4-.584.532-1.003.132-.42.215-.88.248-1.38l.114-2.197h3.101v4.58h.676l-.007 1.811zm4.803-1.259h-.687V8.33h-2.613v2.372h-.684V5.569h.684v2.207h2.613V5.569h.687v5.133zm2.175-1.896h1.763l-.883-2.401-.88 2.4zm1.966.553h-2.172l-.488 1.343h-.705l1.98-5.133h.598l1.983 5.133h-.702l-.494-1.343zm2.492-2.244c0 .31.098.56.294.749.195.188.468.284.817.286h1.004V6.123h-.972c-.371 0-.653.087-.849.261-.196.175-.294.418-.294.731zm2.115 3.587V8.703h-1.197l-1.071 2h-.73l1.203-2.186c-.669-.261-1.004-.728-1.004-1.4 0-.489.162-.869.486-1.14.324-.272.774-.408 1.351-.408h1.649v5.133h-.687zm-43.001 8.663H71.1v-4.579h-2.557v4.58h-.683v-5.133h3.927v5.132zm2.139-1.896h1.763l-.883-2.4-.88 2.4zm1.966.553H73.72l-.488 1.343h-.705l1.98-5.133h.598l1.983 5.133h-.702l-.494-1.343zm5.667-.285c-.064.543-.266.962-.606 1.257-.341.294-.794.442-1.359.442-.612 0-1.103-.218-1.472-.652-.369-.435-.553-1.017-.553-1.745v-.494c0-.477.085-.897.258-1.258.172-.362.415-.64.731-.834a2.051 2.051 0 011.097-.29c.55 0 .992.151 1.324.456.332.304.526.725.58 1.264h-.687c-.059-.41-.188-.708-.386-.892-.198-.183-.475-.275-.831-.275-.437 0-.78.16-1.027.48-.249.32-.372.775-.372 1.365v.497c0 .558.117 1.001.352 1.33.235.33.564.494.986.494.38 0 .671-.085.874-.255.203-.17.338-.467.404-.89h.688zm4.746 0c-.064.543-.266.962-.607 1.257-.34.294-.793.442-1.358.442-.612 0-1.103-.218-1.472-.652-.37-.435-.554-1.017-.554-1.745v-.494c0-.477.086-.897.258-1.258a1.92 1.92 0 01.732-.834 2.052 2.052 0 011.096-.29c.551 0 .993.151 1.325.456.332.304.526.725.58 1.264h-.687c-.06-.41-.188-.708-.386-.892-.198-.183-.475-.275-.832-.275-.436 0-.779.16-1.026.48-.249.32-.373.775-.373 1.365v.497c0 .558.118 1.001.353 1.33.235.33.564.494.986.494.38 0 .671-.085.874-.255.203-.17.338-.467.404-.89h.687zm1.83-.268H89.9l-.883-2.4-.88 2.4zm1.966.553H87.93l-.488 1.343h-.705l1.98-5.133h.598l1.983 5.133h-.702l-.494-1.343zm5.536-.997h-.556v2.34H94.4v-2.34h-.588l-1.467 2.34h-.854l1.745-2.707-1.61-2.425h.809l1.377 2.228h.588v-2.228h.683v2.228h.563l1.378-2.228h.804l-1.609 2.421 1.745 2.711h-.851l-1.474-2.34zm6.245-2.793h.683v5.133h-.683V15.41l-2.553 3.955h-.687v-5.133h.687v3.956l2.553-3.956zm2.613 2.57h1.228c.366 0 .646-.085.84-.256.195-.17.292-.417.292-.74 0-.306-.097-.55-.292-.734-.194-.184-.461-.279-.801-.286h-1.267v2.016zm0 .554v2.009h-.684v-5.133h1.912c.567 0 1.012.144 1.333.43.322.287.483.667.483 1.14 0 .497-.157.881-.472 1.15-.314.27-.765.404-1.351.404h-1.221zm7.729.381c-.064.543-.266.962-.607 1.257-.341.294-.793.442-1.358.442-.613 0-1.103-.218-1.472-.652-.369-.435-.554-1.017-.554-1.745v-.494c0-.477.086-.897.258-1.258.172-.362.416-.64.732-.834a2.049 2.049 0 011.096-.29c.551 0 .992.151 1.325.456.332.304.525.725.58 1.264h-.687c-.059-.41-.188-.708-.386-.892-.199-.183-.476-.275-.832-.275-.436 0-.779.16-1.027.48-.248.32-.372.775-.372 1.365v.497c0 .558.118 1.001.353 1.33.235.33.563.494.986.494.38 0 .671-.085.874-.255.203-.17.338-.467.404-.89h.687zm2.279-.677h-.63v2.305h-.684v-5.133h.684v2.264h.534l1.812-2.264h.851l-1.98 2.49 2.126 2.643h-.837l-1.876-2.305zm4.236.409h1.763l-.883-2.4-.88 2.4zm1.966.553h-2.172l-.488 1.343h-.705l1.98-5.133h.598l1.983 5.133h-.702l-.494-1.343zm2.492-2.244c0 .311.098.56.294.749.195.188.468.284.817.286h1.004v-2.027h-.972c-.371 0-.654.087-.849.261-.196.175-.294.418-.294.731zm2.115 3.587v-1.999h-1.197l-1.071 2h-.73l1.203-2.186c-.669-.261-1.004-.728-1.004-1.4 0-.489.162-.869.486-1.14.324-.272.775-.408 1.351-.408H126v5.133h-.687zm-56.139 6.358h-.63v2.306h-.683v-5.133h.683v2.263h.534l1.812-2.263h.851l-1.98 2.489 2.127 2.644h-.837l-1.877-2.306zm6.537-.426c0-.609-.123-1.076-.37-1.401-.247-.326-.592-.489-1.036-.489-.432 0-.772.163-1.02.489-.248.325-.376.777-.383 1.355v.377c0 .59.125 1.054.376 1.39.25.338.595.507 1.034.507.442 0 .783-.16 1.025-.478.242-.319.367-.775.374-1.37v-.38zm.68.331c0 .503-.085.942-.256 1.317a1.93 1.93 0 01-.726.858 2.015 2.015 0 01-1.097.296c-.408 0-.77-.099-1.086-.298a1.973 1.973 0 01-.735-.85c-.174-.367-.264-.793-.269-1.277v-.37c0-.494.087-.93.26-1.308.173-.378.418-.668.735-.87.317-.2.68-.3 1.088-.3.415 0 .781.099 1.098.297.317.2.56.487.732.864.17.377.256.816.256 1.317v.324zm1.909-2.732l1.694 4.188 1.695-4.188h.886v5.133h-.683V26.03l.064-2.158-1.702 4.157h-.523l-1.699-4.146.068 2.147v1.999h-.683v-5.133h.882zm9.441 5.133h-.687v-4.58h-2.556v4.58h-.684v-5.133h3.927v5.133zm2.14-1.897h1.763l-.884-2.4-.879 2.4zm1.965.554h-2.172l-.487 1.343h-.705l1.98-5.133h.597l1.984 5.133h-.702l-.495-1.343zm5.878 1.343h-.687v-2.373h-2.613v2.373h-.684v-5.133h.684v2.207h2.613v-2.207h.687v5.133zm4.483-5.133h.683v5.133h-.683v-3.955l-2.553 3.955h-.687v-5.133h.687v3.955l2.553-3.955zm2.527 1.546c0 .31.098.56.294.749.196.188.468.283.817.286h1.004V23.45h-.972c-.37 0-.653.087-.849.26-.196.175-.294.419-.294.732zm2.115 3.587V26.03h-1.196l-1.072 1.999h-.73l1.204-2.186c-.67-.26-1.004-.727-1.004-1.4 0-.488.162-.868.486-1.14.324-.271.774-.407 1.351-.407h1.648v5.133h-.687z"/></g><defs><clipPath id="clip0_85_1210"><path fill="#fff" d="M0 0h126v30H0z"/></clipPath></defs></svg>